<?xml version="1.0" encoding="utf-8"?>
<!-- Generator: Adobe Illustrator 25.0.0, SVG Export Plug-In . SVG Version: 6.00 Build 0)  -->
<svg version="1.1" id="Layer_1" xmlns="http://www.w3.org/2000/svg" xmlns:xlink="http://www.w3.org/1999/xlink" x="0px" y="0px"
	 viewBox="0 0 60 60" style="enable-background:new 0 0 60 60;" xml:space="preserve">
<style type="text/css">
	.st0{fill:#FFFFFF;}
	.st1{fill:none;stroke:#E73530;stroke-width:0.5;}
	.st2{fill:#EC1C24;}
	.st3{fill:#2E3191;}
	.st4{display:none;}
	.st5{display:inline;fill:#231F20;}
	.st6{fill:none;stroke:#EC1C24;}
	.st7{display:inline;fill:#37338D;}
	.st8{display:inline;fill:#2E3191;}
	.st9{display:inline;fill:none;stroke:#E73530;stroke-width:0.5;}
	.st10{display:inline;fill:#FFFFFF;}
	.st11{fill:#2E3090;}
	.st12{fill:#231F20;}
</style>
<g>
	<g>
		<path class="st0" d="M29.79,20.2c0.36,0.73,5.9,6.96,13.57-0.14c0.54,22.98-13.57,28.7-13.57,28.7s-14.11-5.72-13.57-28.7
			C23.88,27.16,29.43,20.93,29.79,20.2z"/>
		<path class="st1" d="M29.79,20.2c0.36,0.73,5.9,6.96,13.57-0.14c0.54,22.98-13.57,28.7-13.57,28.7s-14.11-5.72-13.57-28.7
			C23.88,27.16,29.43,20.93,29.79,20.2z"/>
		<polygon class="st2" points="16.27,20.78 24.19,29.45 21.27,29.45 16.3,23.88 		"/>
		<path class="st2" d="M24.12,39.68l3.19,0.05l-3.68,4.29c0,0-1.13-1.25-1.58-1.98C22.39,41.68,24.12,39.68,24.12,39.68z"/>
		<polygon class="st2" points="43.3,20.78 35.38,29.45 38.31,29.45 43.28,23.88 		"/>
		<path class="st2" d="M29.81,20.35c0,0,0.46,0.75,1.37,1.38c-0.02,0.13,0,10.08,0,10.08h10.97c0,0-1.27,4.54-2.28,6.04
			c-0.58,0-8.71,0-8.71,0v10.08c0,0-0.38,0.43-1.32,0.73h-0.1c-0.94-0.3-1.32-0.73-1.32-0.73V37.86c0,0-8.26,0-8.84,0
			c-1.62-3.63-2.16-6.04-2.16-6.04H28.4c0,0,0.02-9.95,0-10.08c0.91-0.64,1.37-1.38,1.37-1.38H29.81z"/>
		<path class="st2" d="M35.46,39.68l-3.19,0.05l3.68,4.29c0,0,1.13-1.24,1.59-1.97C37.19,41.69,35.46,39.68,35.46,39.68z"/>
		<path class="st3" d="M27.36,22.36l-0.05,5.36l-3.91-4.24C23.4,23.48,25.61,23.53,27.36,22.36z"/>
		<path class="st3" d="M16.45,25.72l3.13,3.74H16.9C16.9,29.46,16.35,25.69,16.45,25.72z"/>
		<path class="st3" d="M24.29,44.69l3.02-3.25v5.88C27.31,47.32,24.8,45.39,24.29,44.69z"/>
		<path class="st3" d="M32.21,22.36l0.05,5.36l3.91-4.24C36.17,23.48,33.96,23.53,32.21,22.36z"/>
		<path class="st3" d="M43.12,25.72l-3.13,3.74h2.69C42.67,29.46,43.22,25.69,43.12,25.72z"/>
		<path class="st3" d="M35.3,44.7l-3.04-3.26v5.88C32.26,47.32,34.67,45.47,35.3,44.7z"/>
		<path class="st0" d="M25.84,35.93c-0.26,0.04-0.4,0.07-0.44,0.07c-0.25,0.05-0.45,0.1-0.61,0.16c-0.18,0.06-0.36,0.12-0.54,0.17
			c-0.24,0.08-0.45,0.16-0.64,0.25c-0.27-0.1-0.48-0.17-0.64-0.2c-0.26-0.05-0.58-0.08-0.96-0.08c-0.47,0-0.82,0.05-1.08,0.15
			c-0.2,0.08-0.29,0.16-0.29,0.25c0,0.04,0.03,0.08,0.08,0.14c0.05,0.05,0.08,0.09,0.08,0.13c0,0.07-0.02,0.12-0.05,0.14
			c-0.03,0.02-0.08,0.03-0.15,0.03c-0.11,0-0.2-0.02-0.26-0.06c-0.05-0.04-0.08-0.1-0.08-0.17c0-0.14,0.18-0.35,0.55-0.63
			c0.36-0.28,0.54-0.49,0.54-0.63c0-0.09-0.03-0.15-0.08-0.17c-0.06-0.02-0.15-0.03-0.29-0.03c-0.11,0-0.2,0-0.25,0.01
			c-0.05,0.01-0.12,0.04-0.21,0.09c0-0.12,0.04-0.22,0.12-0.31c0.11-0.11,0.26-0.16,0.47-0.16c0.08,0,0.16,0,0.24,0.02
			c0.02,0,0.03,0,0.05,0.01l0-0.21c0-0.1-0.06-0.18-0.19-0.25c-0.13-0.07-0.28-0.1-0.44-0.1c-0.11,0-0.23,0.01-0.35,0.04
			c-0.12,0.02-0.22,0.06-0.29,0.11c0.07-0.14,0.14-0.25,0.2-0.3c0.13-0.1,0.33-0.16,0.6-0.16c0.12,0,0.23,0.02,0.33,0.04
			c-0.02-0.06-0.02-0.13-0.02-0.19c0-0.1,0.02-0.2,0.06-0.29c0.04-0.1,0.09-0.18,0.16-0.24c0.1-0.11,0.19-0.19,0.28-0.25
			c0.11-0.07,0.24-0.14,0.39-0.19l-0.03-0.04c-0.05,0.02-0.1,0.04-0.15,0.06c-0.04,0.01-0.12,0.01-0.24,0.01
			c-0.18,0-0.39-0.04-0.65-0.11c-0.13-0.04-0.24-0.06-0.32-0.06c-0.15,0-0.27,0.03-0.35,0.08c-0.04,0.02-0.11,0.09-0.23,0.2h-0.03
			c-0.01-0.02-0.01-0.04-0.01-0.07c0-0.04,0.01-0.09,0.01-0.13c0-0.06,0.08-0.15,0.25-0.27c0.2-0.13,0.4-0.2,0.6-0.2
			c0.14,0,0.34,0.02,0.6,0.05c0.27,0.04,0.54,0.07,0.83,0.11c0.12,0,0.26-0.02,0.44-0.05c0.18-0.03,0.36-0.08,0.53-0.15l0.05,0.04
			c-0.24,0.06-0.46,0.16-0.66,0.29c-0.15,0.11-0.28,0.22-0.37,0.34c-0.13,0.17-0.2,0.35-0.2,0.53v1.22c0,0.22-0.1,0.45-0.28,0.71
			c-0.06,0.08-0.16,0.19-0.28,0.31v0.02c0.18-0.07,0.35-0.16,0.5-0.28c0.13-0.1,0.23-0.2,0.3-0.29c0.07-0.09,0.12-0.18,0.17-0.27
			c0.04-0.08,0.06-0.18,0.06-0.28v-1.22c0-0.14,0.05-0.27,0.17-0.4c0.11-0.12,0.23-0.22,0.37-0.28c0.2-0.09,0.52-0.19,0.94-0.3
			c0.14-0.04,0.34-0.08,0.58-0.14c0.21,0.05,0.36,0.1,0.47,0.14c0.31,0.13,0.46,0.28,0.46,0.44c0,0.21-0.13,0.43-0.41,0.67
			c-0.07,0.06-0.22,0.17-0.45,0.32c-0.03,0.03-0.05,0.05-0.05,0.06c0,0.02,0.04,0.03,0.13,0.04c0.26,0.02,0.46,0.08,0.62,0.15
			c0.2,0.1,0.31,0.24,0.31,0.42V35.93z M24.87,33.59c0-0.17-0.07-0.32-0.22-0.46c-0.1-0.1-0.25-0.18-0.42-0.26
			c-0.35,0.08-0.58,0.18-0.68,0.29c-0.06,0.07-0.09,0.21-0.09,0.42v1.38c0,0.11-0.05,0.22-0.16,0.33c-0.02,0.02-0.12,0.11-0.3,0.24
			c-0.07,0.06-0.18,0.12-0.33,0.19c-0.15,0.07-0.31,0.12-0.46,0.16l0.08,0.01c0.12-0.02,0.22-0.03,0.3-0.03
			c0.08,0,0.19-0.01,0.32-0.01c0.04,0,0.06,0,0.08,0c0.14,0,0.28,0.01,0.41,0.02c0.13,0.01,0.29,0.04,0.47,0.07V33.7h0.17v0.74
			c0.19-0.1,0.33-0.18,0.42-0.25C24.73,33.99,24.87,33.79,24.87,33.59z M24.86,34.91v-0.34c-0.05-0.03-0.09-0.05-0.12-0.07
			c-0.09-0.05-0.18-0.1-0.27-0.13l-0.44,0.19v0.35c0.13,0.04,0.26,0.06,0.41,0.06c0.12,0,0.19,0,0.22-0.01
			C24.68,34.96,24.75,34.94,24.86,34.91z M24.86,35.44v-0.4c-0.09,0.02-0.15,0.03-0.19,0.04c-0.04,0-0.1,0.01-0.21,0.01
			c-0.1,0-0.18,0-0.23-0.01c-0.05,0-0.12-0.01-0.2-0.03v0.4c0.06-0.01,0.12-0.02,0.18-0.03c0.05-0.01,0.12-0.01,0.21-0.01
			C24.58,35.41,24.73,35.42,24.86,35.44z M24.86,35.96v-0.39c-0.14-0.03-0.28-0.05-0.42-0.05c-0.06,0-0.11,0-0.16,0
			c-0.05,0-0.13,0.01-0.24,0.04v0.43l0.34,0.12L24.86,35.96z"/>
		<path class="st0" d="M32.85,34.88c0,0.23-0.11,0.45-0.32,0.67c-0.19,0.19-0.45,0.37-0.79,0.55c-0.27,0.14-0.61,0.29-1.03,0.44
			c-0.12-0.03-0.24-0.07-0.38-0.12c-0.14-0.05-0.23-0.08-0.28-0.09l-0.49-0.14c-0.3,0.1-0.58,0.19-0.85,0.25
			c-0.34,0.08-0.62,0.12-0.83,0.12c-0.35,0-0.64-0.07-0.86-0.2c-0.18-0.11-0.27-0.23-0.27-0.35c0-0.16,0.11-0.3,0.34-0.43
			c0.23-0.12,0.47-0.19,0.74-0.19c0.24,0,0.41,0,0.51,0.01c0.1,0.01,0.24,0.02,0.41,0.04l0.2-0.27c-0.41,0-0.71-0.01-0.88-0.03
			c-0.18-0.02-0.34-0.05-0.48-0.1c-0.21-0.07-0.36-0.15-0.43-0.24c-0.07-0.09-0.11-0.2-0.11-0.34c0-0.12,0.06-0.24,0.18-0.36
			c0.12-0.11,0.28-0.2,0.48-0.25c0-0.16,0.06-0.3,0.19-0.43c0.09-0.1,0.26-0.24,0.5-0.41c0.24-0.17,0.48-0.32,0.72-0.46l1.67,0.39
			l0.23-0.28l0.19,0.06l-0.85,1.05c0.05,0,0.1-0.01,0.16-0.01c0.05,0,0.11,0,0.19,0c0.56,0,1.02,0.08,1.4,0.22
			C32.6,34.2,32.85,34.49,32.85,34.88z M29.27,36.12c-0.26-0.09-0.54-0.15-0.86-0.19c-0.32-0.04-0.56-0.06-0.73-0.06
			c-0.13,0-0.25,0.02-0.37,0.05c-0.12,0.03-0.18,0.09-0.18,0.15c0,0.09,0.08,0.17,0.22,0.25c0.15,0.08,0.31,0.11,0.49,0.11
			c0.32,0,0.62-0.04,0.9-0.13C28.8,36.29,28.98,36.23,29.27,36.12z M29.65,34.35c-0.12,0.01-0.25,0.03-0.4,0.04
			c-0.14,0.01-0.25,0.02-0.31,0.02c-0.24,0-0.45-0.04-0.64-0.12c-0.15-0.06-0.32-0.17-0.51-0.32c-0.06,0.04-0.11,0.08-0.13,0.1
			c-0.05,0.05-0.08,0.1-0.08,0.16c0,0.15,0.08,0.26,0.23,0.34c0.2,0.11,0.52,0.16,0.97,0.16c0.09,0,0.19,0,0.28-0.01
			c0.09-0.01,0.2-0.02,0.32-0.04L29.65,34.35z M30.37,33.46c-0.22-0.11-0.45-0.2-0.69-0.26c-0.24-0.06-0.45-0.1-0.62-0.1
			c-0.18,0-0.35,0.03-0.49,0.08c-0.18,0.07-0.27,0.17-0.27,0.29c0,0.1,0.05,0.18,0.17,0.25c0.15,0.09,0.37,0.14,0.66,0.14
			c0.25,0,0.42,0,0.52-0.01c0.1-0.01,0.25-0.03,0.45-0.06L30.37,33.46z M30.99,35.35c0-0.09-0.03-0.15-0.1-0.17
			c-0.07-0.03-0.2-0.04-0.4-0.04c-0.3,0-0.53,0-0.68,0.01c-0.15,0-0.34,0.02-0.59,0.05l-0.24,0.28l1.4,0.26
			c0.11-0.02,0.23-0.08,0.38-0.17C30.92,35.46,30.99,35.39,30.99,35.35z M32.23,35.08c0-0.24-0.13-0.43-0.39-0.57
			c-0.26-0.14-0.62-0.21-1.07-0.21c-0.14,0-0.27,0-0.4,0c-0.13,0-0.29,0.01-0.46,0.03l-0.24,0.32c0.15-0.01,0.28-0.02,0.38-0.03
			c0.11,0,0.24,0,0.39,0c0.05,0,0.08,0,0.11,0c0.26,0,0.5,0.03,0.71,0.08c0.32,0.09,0.49,0.22,0.49,0.4c0,0.14-0.09,0.27-0.28,0.38
			c-0.15,0.09-0.41,0.2-0.78,0.32l0.7,0.17c0.21-0.07,0.4-0.2,0.57-0.39C32.15,35.4,32.23,35.23,32.23,35.08z"/>
		<path class="st0" d="M39.76,34.88c0,0.23-0.11,0.45-0.32,0.67c-0.19,0.19-0.45,0.37-0.79,0.55c-0.27,0.14-0.61,0.29-1.03,0.44
			c-0.12-0.03-0.24-0.07-0.38-0.12c-0.14-0.05-0.23-0.08-0.28-0.09l-0.49-0.14c-0.3,0.1-0.58,0.19-0.85,0.25
			c-0.34,0.08-0.62,0.12-0.83,0.12c-0.35,0-0.64-0.07-0.86-0.2c-0.18-0.11-0.27-0.23-0.27-0.35c0-0.16,0.11-0.3,0.34-0.43
			c0.23-0.12,0.47-0.19,0.74-0.19c0.23,0,0.41,0,0.51,0.01c0.1,0.01,0.24,0.02,0.41,0.04l0.2-0.27c-0.41,0-0.71-0.01-0.89-0.03
			c-0.18-0.02-0.33-0.05-0.47-0.1c-0.21-0.07-0.35-0.15-0.43-0.24c-0.08-0.09-0.11-0.2-0.11-0.34c0-0.12,0.06-0.24,0.18-0.36
			c0.12-0.11,0.28-0.2,0.48-0.25c0-0.16,0.06-0.3,0.19-0.43c0.1-0.1,0.26-0.24,0.5-0.41c0.24-0.17,0.48-0.32,0.72-0.46l1.67,0.39
			l0.23-0.28l0.19,0.06l-0.85,1.05c0.05,0,0.1-0.01,0.16-0.01c0.05,0,0.12,0,0.19,0c0.55,0,1.02,0.08,1.4,0.22
			C39.51,34.2,39.76,34.49,39.76,34.88z M36.17,36.12c-0.26-0.09-0.54-0.15-0.86-0.19c-0.32-0.04-0.56-0.06-0.73-0.06
			c-0.13,0-0.25,0.02-0.37,0.05c-0.12,0.03-0.18,0.09-0.18,0.15c0,0.09,0.08,0.17,0.22,0.25c0.15,0.08,0.31,0.11,0.49,0.11
			c0.32,0,0.62-0.04,0.9-0.13C35.71,36.29,35.89,36.23,36.17,36.12z M36.56,34.35c-0.12,0.01-0.25,0.03-0.4,0.04
			c-0.14,0.01-0.25,0.02-0.31,0.02c-0.24,0-0.45-0.04-0.64-0.12c-0.15-0.06-0.32-0.17-0.51-0.32c-0.06,0.04-0.11,0.08-0.13,0.1
			c-0.05,0.05-0.08,0.1-0.08,0.16c0,0.15,0.08,0.26,0.23,0.34c0.2,0.11,0.52,0.16,0.97,0.16c0.09,0,0.19,0,0.28-0.01
			c0.1-0.01,0.2-0.02,0.32-0.04L36.56,34.35z M37.28,33.46c-0.22-0.11-0.45-0.2-0.7-0.26c-0.24-0.06-0.45-0.1-0.62-0.1
			c-0.18,0-0.35,0.03-0.49,0.08c-0.18,0.07-0.27,0.17-0.27,0.29c0,0.1,0.06,0.18,0.16,0.25c0.15,0.09,0.37,0.14,0.66,0.14
			c0.25,0,0.42,0,0.52-0.01c0.1-0.01,0.25-0.03,0.45-0.06L37.28,33.46z M37.9,35.35c0-0.09-0.03-0.15-0.1-0.17
			c-0.07-0.03-0.2-0.04-0.4-0.04c-0.3,0-0.53,0-0.67,0.01c-0.15,0-0.34,0.02-0.59,0.05l-0.24,0.28l1.4,0.26
			c0.1-0.02,0.23-0.08,0.38-0.17C37.83,35.46,37.9,35.39,37.9,35.35z M39.14,35.08c0-0.24-0.13-0.43-0.39-0.57
			c-0.26-0.14-0.62-0.21-1.07-0.21c-0.13,0-0.27,0-0.4,0c-0.13,0-0.29,0.01-0.46,0.03l-0.23,0.32c0.15-0.01,0.28-0.02,0.38-0.03
			c0.11,0,0.24,0,0.39,0c0.05,0,0.08,0,0.11,0c0.26,0,0.5,0.03,0.71,0.08c0.32,0.09,0.48,0.22,0.48,0.4c0,0.14-0.09,0.27-0.27,0.38
			c-0.15,0.09-0.41,0.2-0.78,0.32l0.7,0.17c0.21-0.07,0.4-0.2,0.57-0.39C39.06,35.4,39.14,35.23,39.14,35.08z"/>
		<g class="st4">
			<path class="st5" d="M16.89,17.17l0.14-0.37c0.02-0.05,0.05-0.08,0.08-0.1c0.03-0.02,0.07-0.02,0.11-0.02
				c0.03,0,0.05,0,0.06,0.01c0.02,0.01,0.02,0.02,0.02,0.03c0,0.01-0.01,0.03-0.04,0.07L17,17.16c-0.01,0.02-0.04,0.03-0.06,0.03
				C16.9,17.19,16.88,17.19,16.89,17.17z M16.38,17.17l0.14-0.37c0.02-0.05,0.05-0.08,0.08-0.1c0.03-0.02,0.06-0.02,0.11-0.02
				c0.03,0,0.05,0,0.06,0.01c0.02,0.01,0.02,0.02,0.02,0.03c0,0.01-0.01,0.03-0.04,0.07l-0.26,0.38c-0.02,0.02-0.04,0.03-0.06,0.03
				C16.39,17.19,16.37,17.19,16.38,17.17z"/>
			<path class="st5" d="M18.58,16.69l-0.03,0.06c-0.15,0-0.25,0.01-0.3,0.03c-0.03,0.01-0.06,0.02-0.08,0.04
				c-0.02,0.02-0.1,0.15-0.22,0.37c-0.04,0.07-0.14,0.27-0.3,0.6c0.09,0.02,0.21,0.03,0.35,0.03l-0.03,0.05
				c-0.04,0-0.13,0-0.25-0.01c-0.09-0.01-0.2-0.01-0.32-0.01c-0.17,0-0.32,0.01-0.46,0.02l0.02-0.05c0.15-0.01,0.26-0.03,0.33-0.04
				c0.02,0,0.03-0.01,0.04-0.02c0.02-0.01,0.04-0.04,0.07-0.07c0.02-0.04,0.1-0.18,0.24-0.43c0.04-0.07,0.12-0.23,0.24-0.48
				c-0.09,0-0.2,0-0.33,0.02l0.04-0.06c0.05-0.01,0.11-0.01,0.17-0.01c0.06,0,0.19-0.01,0.39-0.01
				C18.33,16.7,18.48,16.69,18.58,16.69z"/>
			<path class="st5" d="M18.6,17.24l-0.07-0.03c0.17-0.08,0.3-0.13,0.4-0.15c0.1-0.02,0.19-0.04,0.26-0.04c0.03,0,0.05,0,0.06,0.01
				c0.02,0.01,0.02,0.01,0.02,0.02c0,0.01,0,0.02-0.01,0.03l-0.09,0.19c0.13-0.07,0.3-0.14,0.5-0.2c0.11-0.03,0.2-0.05,0.27-0.05
				c0.05,0,0.09,0.01,0.12,0.02c0.03,0.02,0.04,0.04,0.04,0.07c0,0.02-0.01,0.04-0.02,0.07c-0.02,0.04-0.07,0.13-0.16,0.27
				c-0.08,0.13-0.12,0.22-0.12,0.26c0,0.01,0,0.02,0.01,0.03c0.01,0.01,0.02,0.01,0.03,0.01c0.04,0,0.1-0.02,0.18-0.05
				c0.06-0.03,0.11-0.05,0.17-0.07l0.05,0.03c-0.12,0.06-0.25,0.12-0.38,0.15c-0.08,0.03-0.15,0.04-0.21,0.04
				c-0.05,0-0.09-0.01-0.12-0.02c-0.03-0.02-0.04-0.04-0.04-0.08c0-0.06,0.07-0.2,0.22-0.43c0.04-0.08,0.07-0.13,0.07-0.14
				c0-0.02-0.03-0.03-0.07-0.03c-0.05,0-0.12,0.01-0.2,0.04c-0.12,0.04-0.23,0.09-0.31,0.14c-0.05,0.03-0.1,0.09-0.13,0.17
				l-0.16,0.34h-0.29c0.05-0.1,0.1-0.19,0.14-0.28l0.17-0.37c0.01-0.01,0.01-0.02,0.01-0.03c0-0.02-0.01-0.03-0.04-0.03
				c-0.02,0-0.05,0.01-0.09,0.02C18.74,17.17,18.67,17.2,18.6,17.24z"/>
			<path class="st5" d="M22.87,17.41c0.06-0.26,0.13-0.46,0.19-0.58c-0.17,0.11-0.27,0.18-0.31,0.21l-0.5,0.37c0.11,0,0.26,0,0.46,0
				C22.76,17.41,22.81,17.41,22.87,17.41z M23.5,17.78l-0.02,0.06c-0.05,0-0.09,0-0.12,0c-0.05,0-0.11,0-0.19,0
				c-0.12-0.01-0.2-0.01-0.23-0.01c-0.06,0-0.14,0-0.25,0.01c0.04-0.05,0.07-0.1,0.1-0.16c0.02-0.04,0.04-0.11,0.06-0.2
				c-0.15,0-0.39,0-0.71,0.01c-0.34,0.25-0.59,0.41-0.74,0.48c-0.16,0.07-0.3,0.1-0.44,0.1c-0.07,0-0.13-0.01-0.16-0.02
				c-0.04-0.01-0.05-0.03-0.05-0.05c0-0.02,0.01-0.03,0.03-0.04c0.02-0.01,0.05-0.02,0.08-0.02c0.02,0,0.04,0,0.07,0.01
				c0.08,0.01,0.13,0.02,0.16,0.02c0.09,0,0.18-0.03,0.29-0.09c0.17-0.08,0.43-0.25,0.76-0.5c0.38-0.29,0.69-0.5,0.92-0.63
				c-0.32,0.01-0.52,0.02-0.6,0.03c-0.11,0.02-0.19,0.04-0.24,0.08c-0.05,0.04-0.08,0.07-0.08,0.11c0,0.01,0.01,0.03,0.03,0.05
				c0.02,0.02,0.03,0.04,0.03,0.05c0,0.01-0.01,0.03-0.03,0.04c-0.02,0.01-0.05,0.02-0.08,0.02c-0.04,0-0.08-0.01-0.11-0.02
				c-0.03-0.02-0.04-0.04-0.04-0.07c0-0.05,0.02-0.09,0.07-0.14c0.05-0.04,0.12-0.08,0.21-0.11c0.09-0.03,0.21-0.05,0.35-0.07
				c0.07-0.01,0.2-0.02,0.37-0.02c0.16-0.01,0.25-0.01,0.29-0.02c0.06-0.01,0.12-0.03,0.18-0.05c-0.04,0.08-0.07,0.15-0.09,0.21
				l-0.15,0.56l-0.09,0.4c0.1,0.01,0.18,0.02,0.26,0.02C23.39,17.79,23.44,17.79,23.5,17.78z"/>
			<path class="st5" d="M24.61,17.59l0.07,0.03c-0.1,0.06-0.22,0.11-0.36,0.16c-0.14,0.05-0.26,0.07-0.35,0.07
				c-0.04,0-0.07-0.01-0.1-0.02c-0.03-0.02-0.04-0.03-0.04-0.06c0-0.05,0.04-0.15,0.12-0.31l0.21-0.42c0.08-0.15,0.14-0.26,0.2-0.31
				c0.08-0.08,0.2-0.14,0.35-0.18c0.15-0.04,0.31-0.06,0.47-0.06c0.06,0,0.1,0.01,0.13,0.02c0.03,0.01,0.05,0.03,0.05,0.05
				c0,0.02-0.02,0.04-0.05,0.05c-0.03,0.01-0.08,0.02-0.14,0.02c-0.04,0-0.09,0-0.17-0.01c-0.06-0.01-0.12-0.01-0.17-0.01
				s-0.09,0-0.12,0.02c-0.04,0.02-0.07,0.05-0.1,0.1c-0.03,0.05-0.08,0.14-0.15,0.29l-0.2,0.4c-0.1,0.2-0.15,0.3-0.15,0.31
				c0,0.02,0.02,0.03,0.05,0.03c0.03,0,0.07-0.01,0.13-0.03C24.39,17.68,24.5,17.64,24.61,17.59z"/>
			<path class="st5" d="M25.58,17.59l0.07,0.03c-0.1,0.06-0.22,0.11-0.36,0.16c-0.14,0.05-0.25,0.07-0.35,0.07
				c-0.04,0-0.07-0.01-0.1-0.02c-0.03-0.02-0.04-0.03-0.04-0.06c0-0.05,0.04-0.15,0.12-0.31l0.21-0.42c0.08-0.15,0.14-0.26,0.2-0.31
				c0.08-0.08,0.2-0.14,0.35-0.18c0.15-0.04,0.31-0.06,0.47-0.06c0.06,0,0.1,0.01,0.13,0.02s0.05,0.03,0.05,0.05
				c0,0.02-0.02,0.04-0.05,0.05c-0.03,0.01-0.08,0.02-0.14,0.02c-0.04,0-0.09,0-0.17-0.01c-0.06-0.01-0.12-0.01-0.17-0.01
				c-0.05,0-0.09,0-0.12,0.02c-0.04,0.02-0.07,0.05-0.1,0.1c-0.03,0.05-0.08,0.14-0.15,0.29l-0.2,0.4c-0.1,0.2-0.15,0.3-0.15,0.31
				c0,0.02,0.02,0.03,0.05,0.03c0.03,0,0.07-0.01,0.13-0.03C25.36,17.68,25.47,17.64,25.58,17.59z"/>
			<path class="st5" d="M26.82,17.15c-0.07-0.01-0.13-0.01-0.18-0.01c-0.12,0-0.22,0.02-0.31,0.05c-0.09,0.03-0.17,0.09-0.25,0.17
				c-0.08,0.08-0.11,0.16-0.11,0.25c0,0.04,0.02,0.07,0.05,0.09c0.03,0.02,0.07,0.03,0.12,0.03c0.09,0,0.19-0.02,0.29-0.07
				c0.1-0.05,0.18-0.12,0.23-0.2L26.82,17.15z M27.07,17l0.13-0.01l-0.15,0.24c-0.06,0.1-0.12,0.21-0.17,0.33
				c-0.03,0.07-0.04,0.11-0.04,0.13c0,0.02,0.02,0.02,0.05,0.02c0.02,0,0.06-0.01,0.1-0.02c0.08-0.02,0.16-0.05,0.23-0.08l0.06,0.03
				c-0.15,0.06-0.25,0.1-0.29,0.12c-0.08,0.03-0.16,0.05-0.24,0.06c-0.05,0.01-0.1,0.01-0.15,0.01c-0.03,0-0.06,0-0.08-0.01
				c-0.02-0.01-0.03-0.02-0.03-0.03c0-0.01,0-0.02,0.02-0.04l0.08-0.13c-0.11,0.06-0.25,0.12-0.4,0.17
				c-0.1,0.03-0.18,0.04-0.26,0.04c-0.08,0-0.13-0.01-0.17-0.04c-0.06-0.03-0.08-0.08-0.08-0.14c0-0.07,0.04-0.14,0.11-0.22
				c0.07-0.08,0.17-0.16,0.3-0.22c0.13-0.07,0.26-0.12,0.39-0.15c0.11-0.02,0.24-0.04,0.41-0.04c0.04,0,0.08,0,0.13,0L27.07,17z"/>
			<path class="st5" d="M29,17.62l0.05,0.03c-0.12,0.06-0.25,0.12-0.37,0.15c-0.09,0.03-0.16,0.04-0.21,0.04
				c-0.05,0-0.08-0.01-0.11-0.03c-0.03-0.02-0.04-0.04-0.04-0.08c0-0.03,0.01-0.06,0.03-0.11c0.02-0.05,0.09-0.15,0.19-0.32
				c0.05-0.08,0.07-0.13,0.07-0.14c0-0.02-0.02-0.04-0.07-0.04c-0.06,0-0.12,0.01-0.21,0.04c-0.12,0.04-0.22,0.08-0.31,0.14
				c-0.06,0.04-0.1,0.09-0.14,0.17l-0.16,0.34h-0.29c0.06-0.11,0.11-0.2,0.14-0.28l0.29-0.62c0.05-0.11,0.12-0.2,0.21-0.26
				c0.09-0.06,0.2-0.11,0.34-0.15c0.14-0.04,0.28-0.06,0.41-0.06c0.06,0,0.1,0.01,0.14,0.02c0.03,0.01,0.05,0.03,0.05,0.05
				c0,0.02-0.02,0.03-0.05,0.05c-0.03,0.01-0.08,0.02-0.13,0.02c-0.03,0-0.07,0-0.12-0.01c-0.12-0.01-0.19-0.01-0.24-0.01
				c-0.06,0-0.11,0.01-0.15,0.04c-0.04,0.02-0.08,0.08-0.12,0.17l-0.22,0.47c0.16-0.08,0.33-0.15,0.51-0.21
				c0.11-0.03,0.19-0.05,0.26-0.05c0.05,0,0.09,0.01,0.12,0.02c0.03,0.01,0.04,0.04,0.04,0.06c0,0.02,0,0.04-0.02,0.07
				c-0.02,0.04-0.06,0.11-0.12,0.21c-0.09,0.14-0.14,0.22-0.15,0.25c-0.02,0.03-0.02,0.06-0.02,0.09c0,0.01,0,0.02,0.01,0.02
				c0.01,0.01,0.02,0.01,0.03,0.01c0.03,0,0.09-0.02,0.18-0.05C28.87,17.67,28.93,17.65,29,17.62z"/>
			<path class="st5" d="M30.91,17.04c0.06-0.02,0.11-0.03,0.13-0.03c0.03,0,0.05,0,0.06,0.01c0.02,0.01,0.02,0.01,0.02,0.03
				c0,0.02-0.04,0.04-0.11,0.04l-0.15,0.15c-0.04,0.04-0.07,0.08-0.09,0.12c-0.02,0.04-0.03,0.08-0.03,0.13
				c0,0.05,0.03,0.14,0.08,0.26c0.2-0.07,0.39-0.15,0.56-0.26c0-0.03,0-0.05,0-0.06c0-0.14,0.04-0.25,0.13-0.33
				c0.06-0.05,0.12-0.08,0.19-0.08c0.04,0,0.07,0.01,0.1,0.03c0.03,0.02,0.04,0.04,0.04,0.08c0,0.03-0.01,0.06-0.03,0.09
				c-0.04,0.06-0.08,0.11-0.13,0.16c0,0.16,0.02,0.29,0.07,0.38c0.16-0.05,0.31-0.12,0.46-0.2c0.11-0.06,0.19-0.12,0.25-0.18
				c0.06-0.06,0.08-0.11,0.08-0.15c0-0.02-0.01-0.05-0.04-0.08c-0.04-0.04-0.05-0.06-0.05-0.08c0-0.02,0.01-0.03,0.04-0.04
				c0.03-0.01,0.06-0.02,0.09-0.02c0.04,0,0.08,0.01,0.1,0.03c0.03,0.02,0.04,0.06,0.04,0.11c0,0.13-0.12,0.27-0.35,0.41
				c-0.23,0.15-0.52,0.26-0.86,0.34c-0.04-0.07-0.08-0.17-0.12-0.31c-0.18,0.09-0.29,0.14-0.33,0.16c-0.09,0.04-0.17,0.07-0.25,0.09
				c-0.08,0.03-0.17,0.05-0.26,0.07c-0.01-0.04-0.03-0.1-0.06-0.18c-0.05-0.11-0.07-0.2-0.07-0.25c0-0.07,0.03-0.13,0.1-0.2
				c0.07-0.07,0.17-0.12,0.3-0.17c-0.24,0-0.41,0.02-0.51,0.04c-0.07,0.02-0.1,0.04-0.1,0.06c0,0.01,0.01,0.02,0.03,0.04
				c0.02,0.02,0.02,0.03,0.02,0.04c0,0.01-0.01,0.02-0.03,0.03c-0.02,0.01-0.04,0.01-0.07,0.01c-0.04,0-0.07-0.01-0.09-0.02
				c-0.02-0.01-0.04-0.03-0.04-0.06c0-0.05,0.05-0.09,0.14-0.12C30.32,17.06,30.56,17.04,30.91,17.04z"/>
			<path class="st5" d="M33.18,17.44c0.21-0.05,0.36-0.1,0.46-0.15c0.07-0.04,0.11-0.07,0.11-0.11c0-0.03-0.01-0.05-0.04-0.07
				c-0.03-0.02-0.07-0.02-0.11-0.02c-0.05,0-0.09,0.01-0.14,0.03c-0.06,0.02-0.11,0.06-0.15,0.11C33.24,17.3,33.2,17.37,33.18,17.44
				z M33.86,17.57l0.06,0.05c-0.32,0.15-0.6,0.23-0.82,0.23c-0.09,0-0.16-0.02-0.21-0.05c-0.05-0.03-0.07-0.08-0.07-0.15
				c0-0.14,0.09-0.27,0.26-0.41c0.19-0.15,0.42-0.23,0.69-0.23c0.09,0,0.16,0.01,0.21,0.03c0.05,0.02,0.07,0.05,0.07,0.09
				c0,0.04-0.03,0.08-0.09,0.12c-0.06,0.04-0.16,0.08-0.32,0.13c-0.08,0.02-0.24,0.06-0.49,0.11c-0.01,0.03-0.02,0.07-0.02,0.1
				c0,0.04,0.02,0.08,0.04,0.09c0.03,0.02,0.07,0.03,0.13,0.03c0.05,0,0.11-0.01,0.18-0.02C33.57,17.68,33.7,17.64,33.86,17.57z"/>
			<path class="st5" d="M36.71,17.76l-0.03,0.06c-0.09,0.01-0.16,0.02-0.22,0.02c-0.06,0-0.15,0-0.27-0.01
				c-0.1-0.01-0.18-0.01-0.26-0.01c-0.13,0-0.27,0.01-0.4,0.02l0.03-0.06c0.13-0.01,0.23-0.02,0.29-0.04
				c0.04-0.01,0.08-0.04,0.11-0.07c0.03-0.04,0.1-0.16,0.21-0.37l0.25-0.51l0.01-0.02c-0.08,0-0.14,0-0.18,0
				c-0.24,0-0.44,0.01-0.58,0.04c-0.14,0.03-0.25,0.06-0.32,0.11c-0.07,0.05-0.11,0.1-0.11,0.16c0,0.02,0.01,0.04,0.02,0.06
				c0.01,0.01,0.04,0.03,0.09,0.06c0.05,0.02,0.07,0.05,0.07,0.07c0,0.02-0.01,0.03-0.04,0.04c-0.03,0.01-0.06,0.02-0.1,0.02
				c-0.06,0-0.1-0.01-0.13-0.04c-0.05-0.04-0.07-0.09-0.07-0.15c0-0.08,0.05-0.15,0.15-0.23c0.1-0.07,0.24-0.13,0.41-0.17
				c0.17-0.04,0.38-0.06,0.63-0.06c0.12,0,0.31,0.01,0.57,0.02c0.18,0.01,0.32,0.02,0.4,0.02c0.08,0,0.14-0.01,0.17-0.02
				c0.03-0.01,0.05-0.03,0.05-0.06c0,0,0-0.01-0.01-0.03c-0.01-0.01-0.01-0.02-0.01-0.02c0-0.02,0.01-0.03,0.03-0.04
				c0.02-0.01,0.05-0.02,0.09-0.02c0.04,0,0.07,0.01,0.1,0.02c0.03,0.01,0.04,0.03,0.04,0.06c0,0.05-0.05,0.09-0.16,0.12
				c-0.11,0.03-0.29,0.05-0.54,0.05c-0.09,0-0.18,0-0.29,0c-0.01,0.02-0.05,0.1-0.12,0.24l-0.17,0.34l-0.1,0.2l-0.11,0.23
				c0.09,0.01,0.16,0.01,0.22,0.01C36.52,17.79,36.61,17.78,36.71,17.76z"/>
			<path class="st5" d="M37.47,17.83h-0.29l0.14-0.26c0.07-0.13,0.13-0.25,0.17-0.36c0.01-0.03,0.02-0.05,0.02-0.05
				c0-0.02-0.01-0.03-0.04-0.03c-0.02,0-0.05,0.01-0.09,0.02c-0.04,0.01-0.12,0.05-0.22,0.1l-0.06-0.03
				c0.13-0.06,0.26-0.11,0.38-0.14c0.13-0.03,0.22-0.05,0.29-0.05c0.02,0,0.04,0,0.06,0.01c0.02,0,0.02,0.01,0.02,0.02
				c0,0.01-0.01,0.03-0.03,0.07l-0.09,0.17c0.13-0.1,0.28-0.19,0.45-0.27c0.08-0.04,0.15-0.05,0.2-0.05c0.04,0,0.07,0.01,0.1,0.02
				c0.03,0.01,0.04,0.03,0.04,0.04c0,0.02-0.01,0.03-0.04,0.04c-0.02,0.01-0.09,0.03-0.19,0.04c-0.1,0.02-0.18,0.04-0.24,0.06
				c-0.06,0.02-0.13,0.06-0.2,0.11c-0.07,0.05-0.12,0.09-0.15,0.12c-0.03,0.03-0.07,0.11-0.13,0.24L37.47,17.83z"/>
			<path class="st5" d="M39.65,17.04h0.28l-0.18,0.34c-0.11,0.2-0.17,0.31-0.17,0.34c0,0.01,0.01,0.02,0.02,0.03
				c0.01,0.01,0.03,0.01,0.04,0.01c0.02,0,0.05,0,0.08-0.01c0.04-0.02,0.13-0.05,0.25-0.11l0.06,0.03
				c-0.26,0.13-0.45,0.19-0.58,0.19c-0.04,0-0.08-0.01-0.11-0.02c-0.03-0.02-0.04-0.04-0.04-0.07c0-0.03,0.01-0.08,0.04-0.13
				c-0.12,0.07-0.26,0.12-0.43,0.17c-0.11,0.03-0.21,0.05-0.3,0.05c-0.05,0-0.08-0.01-0.11-0.02c-0.03-0.01-0.04-0.04-0.04-0.07
				c0-0.02,0.01-0.05,0.02-0.08c0.02-0.04,0.06-0.12,0.13-0.24c0.09-0.16,0.13-0.25,0.13-0.28c0-0.02-0.01-0.03-0.04-0.03
				c-0.02,0-0.06,0.01-0.1,0.02c-0.04,0.01-0.11,0.04-0.21,0.09l-0.09-0.03c0.17-0.08,0.31-0.13,0.4-0.16
				c0.09-0.03,0.17-0.04,0.22-0.04c0.03,0,0.06,0.01,0.08,0.02c0.02,0.01,0.03,0.03,0.03,0.05c0,0.04-0.05,0.15-0.14,0.33
				c-0.08,0.16-0.12,0.25-0.12,0.27c0,0.01,0.01,0.02,0.03,0.03c0.02,0.01,0.04,0.01,0.06,0.01c0.07,0,0.18-0.03,0.31-0.09
				c0.13-0.06,0.22-0.13,0.26-0.21L39.65,17.04z"/>
			<path class="st5" d="M41.05,17.02c0.12,0,0.21,0.01,0.27,0.03c0.06,0.02,0.1,0.05,0.1,0.08c0,0.02-0.01,0.03-0.04,0.04
				c-0.03,0.01-0.06,0.02-0.1,0.02c-0.03,0-0.05,0-0.07-0.01c-0.02-0.01-0.05-0.02-0.08-0.04c-0.07-0.04-0.13-0.06-0.19-0.06
				c-0.05,0-0.1,0.01-0.14,0.03c-0.04,0.02-0.06,0.05-0.06,0.08c0,0.03,0.01,0.05,0.04,0.08c0.03,0.02,0.09,0.06,0.2,0.12
				c0.15,0.07,0.22,0.15,0.22,0.22c0,0.07-0.06,0.13-0.18,0.18c-0.12,0.05-0.27,0.08-0.46,0.08c-0.16,0-0.27-0.02-0.35-0.05
				c-0.08-0.03-0.11-0.07-0.11-0.11c0-0.02,0.01-0.04,0.04-0.05c0.03-0.01,0.07-0.02,0.11-0.02c0.04,0,0.07,0.01,0.1,0.02
				c0.03,0.01,0.04,0.03,0.04,0.04c0,0.01,0,0.01,0,0.02c0,0.01,0,0.01,0,0.02c0,0.02,0.02,0.04,0.06,0.05
				c0.03,0.01,0.08,0.02,0.14,0.02c0.07,0,0.13-0.01,0.19-0.02c0.05-0.01,0.1-0.03,0.13-0.05c0.03-0.02,0.05-0.05,0.05-0.07
				c0-0.02-0.01-0.05-0.04-0.07c-0.03-0.02-0.09-0.06-0.19-0.11c-0.14-0.07-0.21-0.15-0.21-0.21c0-0.06,0.05-0.12,0.16-0.17
				C40.75,17.04,40.88,17.02,41.05,17.02z"/>
			<path class="st5" d="M42.03,16.87l0.32-0.07l-0.14,0.28h0.41l-0.03,0.07h-0.4L42,17.47c-0.06,0.1-0.08,0.16-0.08,0.2
				c0,0.02,0.01,0.03,0.02,0.04c0.02,0.01,0.04,0.01,0.06,0.01c0.04,0,0.1-0.01,0.19-0.04c0.11-0.03,0.22-0.07,0.32-0.12l0.07,0.05
				c-0.29,0.11-0.48,0.17-0.58,0.2c-0.1,0.02-0.18,0.04-0.23,0.04c-0.05,0-0.09-0.01-0.12-0.03c-0.03-0.02-0.04-0.04-0.04-0.08
				c0-0.05,0.03-0.11,0.07-0.21l0.2-0.38h-0.32l0.04-0.07h0.32L42.03,16.87z"/>
			<path class="st5" d="M43.54,17.17l0.14-0.37c0.02-0.05,0.05-0.08,0.08-0.1c0.03-0.02,0.07-0.02,0.11-0.02
				c0.03,0,0.05,0,0.06,0.01c0.02,0.01,0.02,0.02,0.02,0.03c0,0.01-0.01,0.03-0.04,0.07l-0.26,0.38c-0.02,0.02-0.04,0.03-0.07,0.03
				C43.55,17.19,43.53,17.19,43.54,17.17z M43.03,17.17l0.15-0.37c0.02-0.05,0.05-0.08,0.08-0.1c0.03-0.02,0.06-0.02,0.1-0.02
				c0.03,0,0.05,0,0.06,0.01c0.02,0.01,0.02,0.02,0.02,0.03c0,0.01-0.01,0.03-0.04,0.07l-0.26,0.38c-0.02,0.02-0.04,0.03-0.07,0.03
				C43.04,17.19,43.02,17.19,43.03,17.17z"/>
		</g>
		<path class="st6" d="M29.79,20.2c0.36,0.73,5.9,6.96,13.57-0.14c0.54,22.98-13.57,28.7-13.57,28.7s-14.11-5.72-13.57-28.7
			C23.88,27.16,29.43,20.93,29.79,20.2z"/>
		<g class="st4">
			<path class="st7" d="M24.42,49.59v-0.65c0,0-0.35,0.14-1.12,0.18c-0.77,0-3.82,0-3.82,0s-0.72,0.06-0.93,0.24
				c0.25,0.1,0.19,0.24,1.22,0.24C20.81,49.6,24.42,49.59,24.42,49.59z"/>
			<path class="st7" d="M35.63,49.58v-0.65c0,0,0.33,0.2,1.08,0.23c0.74,0,3.67,0,3.67,0s0.74,0.05,0.94,0.21
				c-0.24,0.09-0.23,0.22-1.22,0.22C39.1,49.58,35.63,49.58,35.63,49.58z"/>
			<path class="st7" d="M35.35,49.58v-0.65c0,0,0.35,0.2,1.13,0.23c0.78,0,3.85,0,3.85,0s0.78,0.05,0.99,0.21
				c-0.25,0.09-0.24,0.22-1.28,0.22C38.99,49.58,35.35,49.58,35.35,49.58z"/>
			<path class="st8" d="M7.26,48.62l15.72,0.03c0,0,1.15-0.04,1.41,0.26c-0.14,0.07-0.34,0.23-1.41,0.23
				c-1.07,0-3.45,0.02-3.45,0.02s-0.76,0.02-0.9,0.24c0.07,0.09,0.66,0.19,0.9,0.19c0.23,0,20.72,0,20.72,0s0.77,0.05,1.08-0.23
				c-0.17-0.11-0.36-0.22-1.12-0.22c-0.76,0-3.52,0-3.52,0s-0.58,0-1.02-0.24c0.26-0.17,0.43-0.25,1.03-0.25c0.6,0,16.13,0,16.13,0
				l-5.7,3.32l5.68,3.3l-11.3,0.03v0.71c0,0-0.38,0.23-1.42,0.23c-1.96,0-1.13,0-20.09,0c0,0-0.99-0.03-1.38-0.23
				c0-0.26,0-0.71,0-0.71H7.23l5.71-3.28L7.26,48.62z"/>
			<path class="st9" d="M7.16,48.62l15.72,0.03c0,0,1.15-0.04,1.41,0.26c-0.13,0.07-0.34,0.23-1.41,0.23
				c-1.07,0-3.45,0.02-3.45,0.02s-0.76,0.02-0.9,0.24c0.07,0.09,0.66,0.19,0.9,0.19c0.23,0,20.71,0,20.71,0s0.86,0.05,1.18-0.23
				c-0.17-0.11-0.45-0.22-1.21-0.22c-0.76,0-3.52,0-3.52,0s-0.58,0-1.02-0.24c0.26-0.17,0.43-0.25,1.03-0.25c0.6,0,16.13,0,16.13,0
				l-5.7,3.32l5.68,3.3L41.4,55.31v0.71c0,0-0.38,0.23-1.42,0.23c-1.96,0-1.13,0-20.09,0c0,0-0.99-0.03-1.38-0.23
				c-0.01-0.26,0-0.71,0-0.71H7.13l5.71-3.28L7.16,48.62z"/>
			<line class="st9" x1="41.31" y1="49.36" x2="41.4" y2="55.31"/>
			<line class="st9" x1="18.51" y1="49.4" x2="18.51" y2="55.25"/>
			<path class="st10" d="M21.17,53.42c0.04,0,0.08,0,0.1,0.01c0.19-0.01,0.37-0.08,0.54-0.2l0.05,0.16
				c-0.24,0.23-0.56,0.34-0.95,0.34c-0.35,0.33-0.68,0.52-0.99,0.56c-0.16,0.02-0.29-0.04-0.39-0.17c-0.1-0.14-0.16-0.32-0.16-0.56
				c0-0.25,0.06-0.52,0.19-0.81c0.12-0.29,0.31-0.56,0.55-0.81c0.19-0.2,0.44-0.43,0.76-0.69c0.32-0.25,0.62-0.44,0.89-0.55
				c0.06-0.02,0.1-0.03,0.14-0.03c0.11,0,0.16,0.07,0.16,0.2c0,0.11-0.04,0.24-0.11,0.37c-0.14,0.22-0.33,0.45-0.56,0.67
				c-0.23,0.22-0.49,0.46-0.78,0.7c-0.29,0.24-0.54,0.45-0.77,0.64c-0.02,0.05-0.03,0.12-0.05,0.21c0,0.1,0.03,0.19,0.08,0.25
				c0.05,0.07,0.12,0.11,0.21,0.11c0.14-0.01,0.28-0.1,0.42-0.27c-0.04-0.05-0.07-0.11-0.08-0.19c0-0.17,0.1-0.36,0.29-0.54
				c0.2-0.19,0.37-0.28,0.53-0.28c0.12,0,0.19,0.07,0.2,0.19c0,0.08-0.01,0.16-0.04,0.23c-0.03,0.08-0.08,0.17-0.14,0.26
				C21.22,53.33,21.18,53.39,21.17,53.42z M20.05,52.74c0.36-0.31,0.69-0.61,1-0.93c0.31-0.31,0.49-0.55,0.53-0.71
				c-0.26,0.18-0.54,0.43-0.84,0.74C20.43,52.16,20.2,52.46,20.05,52.74z"/>
			<path class="st10" d="M23.57,52.6c0.15,0.01,0.22,0.11,0.22,0.29c0,0.19-0.08,0.39-0.23,0.62c0.03,0,0.05,0,0.07,0.01
				c0.13-0.01,0.31-0.1,0.54-0.3l0.07,0.23c-0.14,0.16-0.28,0.27-0.44,0.33c-0.16,0.06-0.33,0.09-0.53,0.1
				c-0.29,0.25-0.59,0.38-0.88,0.38c-0.21,0-0.38-0.08-0.5-0.23c-0.12-0.15-0.18-0.33-0.18-0.53c0-0.23,0.08-0.43,0.25-0.62
				c0.17-0.19,0.38-0.33,0.63-0.45c0.25-0.11,0.51-0.17,0.77-0.17c0.22,0,0.34,0.06,0.34,0.16C23.7,52.5,23.65,52.56,23.57,52.6z
				 M23.07,52.84c-0.29,0.13-0.51,0.26-0.66,0.38c-0.15,0.12-0.23,0.27-0.25,0.47c-0.01,0.13,0.07,0.21,0.25,0.21
				c0.17-0.01,0.34-0.08,0.5-0.21c-0.05-0.08-0.08-0.16-0.09-0.24C22.82,53.29,22.9,53.08,23.07,52.84z"/>
			<path class="st10" d="M25.86,53.08l-0.01-0.01c-0.15,0.09-0.3,0.2-0.44,0.32c-0.14,0.12-0.28,0.27-0.43,0.42
				c-0.15,0.15-0.23,0.24-0.25,0.26c-0.1,0.09-0.2,0.14-0.32,0.15c-0.09-0.01-0.16-0.05-0.22-0.14c-0.06-0.08-0.09-0.19-0.09-0.33
				c-0.01-0.12,0.03-0.28,0.12-0.46c0.09-0.19,0.19-0.34,0.31-0.45c0.15-0.15,0.25-0.24,0.3-0.27c0.04-0.03,0.12-0.04,0.24-0.04
				h0.14c0.12,0,0.17,0.04,0.17,0.11c0,0.06-0.04,0.13-0.12,0.21c-0.08,0.09-0.19,0.2-0.34,0.32c-0.14,0.13-0.23,0.22-0.26,0.26
				c-0.02,0.03-0.03,0.05-0.04,0.07c0,0.02,0.02,0.04,0.06,0.05c0.05-0.01,0.08-0.03,0.1-0.05c0.24-0.24,0.52-0.47,0.83-0.68
				c0.07-0.06,0.22-0.16,0.46-0.3c0.24-0.14,0.41-0.21,0.5-0.22c0.03,0,0.07,0.05,0.11,0.14c0.04,0.09,0.06,0.18,0.06,0.25
				c0,0.05,0,0.08-0.01,0.08c-0.04,0.06-0.13,0.15-0.27,0.28c-0.13,0.13-0.24,0.23-0.32,0.32c-0.08,0.09-0.12,0.18-0.12,0.26
				c0.01,0.03,0.02,0.04,0.03,0.06c0.01,0.02,0.02,0.03,0.03,0.04c0.01,0.01,0.02,0.02,0.04,0.03c0.08,0,0.19-0.05,0.32-0.13
				c0.13-0.08,0.32-0.22,0.58-0.4l0.05,0.22c-0.31,0.27-0.59,0.49-0.82,0.65c-0.23,0.16-0.43,0.24-0.59,0.24
				c-0.11,0-0.18-0.02-0.21-0.07c-0.03-0.05-0.07-0.14-0.11-0.27C25.35,53.79,25.53,53.49,25.86,53.08z"/>
			<path class="st10" d="M29.19,52.66c0.11,0.05,0.16,0.11,0.16,0.19c0,0.08-0.05,0.18-0.15,0.28c-0.24,0.24-0.36,0.42-0.36,0.53
				c0.01,0.07,0.06,0.11,0.15,0.12c0.17,0.02,0.46-0.12,0.89-0.43l0.05,0.21c-0.23,0.2-0.49,0.39-0.78,0.57
				c-0.29,0.18-0.51,0.26-0.64,0.23c-0.14-0.03-0.22-0.12-0.23-0.26c0.01-0.16,0.09-0.36,0.23-0.61l-0.01-0.01
				c-0.15,0.1-0.3,0.21-0.46,0.32c-0.16,0.11-0.3,0.2-0.42,0.28c-0.12,0.07-0.21,0.12-0.28,0.14c-0.09,0.02-0.2-0.04-0.35-0.18
				c-0.14-0.15-0.21-0.29-0.21-0.44c0-0.06,0-0.11,0.01-0.13c0.06-0.19,0.21-0.38,0.47-0.56c0.26-0.18,0.55-0.33,0.88-0.45
				c0.33-0.12,0.6-0.18,0.81-0.2H29c0.1,0,0.19,0.02,0.27,0.07c0.08,0.05,0.12,0.11,0.12,0.19C29.39,52.58,29.32,52.62,29.19,52.66z
				 M28.83,52.81L28.83,52.81c-0.35,0.09-0.63,0.18-0.84,0.25c-0.21,0.07-0.39,0.17-0.56,0.29c-0.16,0.12-0.24,0.26-0.22,0.41
				c0,0.06,0.04,0.09,0.11,0.11c0.13,0,0.34-0.12,0.63-0.34C28.25,53.31,28.54,53.07,28.83,52.81z"/>
			<path class="st10" d="M31.84,53.88c-0.12-0.13-0.19-0.24-0.19-0.33c0-0.14,0.16-0.28,0.48-0.4c0.13-0.05,0.23-0.12,0.31-0.23
				c0.08-0.11,0.25-0.35,0.49-0.72c0.24-0.37,0.46-0.66,0.65-0.89c0.18-0.19,0.32-0.29,0.43-0.29c0.08,0,0.11,0.07,0.11,0.23
				c0,0.17-0.06,0.33-0.16,0.5c-0.1,0.17-0.32,0.44-0.64,0.82c-0.32,0.38-0.54,0.64-0.64,0.78c0.05,0.02,0.09,0.05,0.13,0.09
				c0.04,0.04,0.08,0.1,0.11,0.16c0.03,0.07,0.06,0.12,0.07,0.15l0.82-0.44l0.07,0.18c-0.24,0.22-0.5,0.39-0.78,0.51
				c0.04,0.17,0.03,0.35-0.06,0.54c-0.08,0.19-0.2,0.35-0.35,0.5c-0.15,0.14-0.31,0.26-0.48,0.35c-0.17,0.09-0.32,0.14-0.45,0.15
				c-0.11,0.01-0.19-0.06-0.25-0.2c-0.06-0.15-0.09-0.29-0.09-0.43c0-0.15,0.03-0.3,0.09-0.43C31.57,54.35,31.68,54.15,31.84,53.88z
				 M32.06,55.12c0.18-0.09,0.33-0.24,0.46-0.42c0.12-0.19,0.17-0.38,0.14-0.59c-0.06,0-0.11,0-0.15,0.01
				c-0.12-0.01-0.21-0.03-0.27-0.07c-0.19,0.3-0.29,0.53-0.29,0.68C31.95,54.84,31.99,54.97,32.06,55.12z"/>
			<path class="st10" d="M34.25,53.47c0,0.03,0,0.05-0.01,0.08c0,0.08,0.03,0.14,0.08,0.18c0.05,0.04,0.14,0.06,0.25,0.06
				c0.12,0,0.22-0.03,0.32-0.08c0.1-0.05,0.28-0.17,0.56-0.35l0.05,0.19c-0.24,0.27-0.48,0.47-0.73,0.6
				c-0.25,0.13-0.45,0.19-0.61,0.15c-0.28-0.07-0.41-0.27-0.41-0.62c0-0.37,0.2-0.72,0.61-1.04c0.16-0.14,0.33-0.22,0.49-0.22
				c0.06,0,0.12,0.01,0.17,0.04c0.05,0.02,0.08,0.06,0.08,0.12c0,0.11-0.11,0.27-0.33,0.46C34.55,53.26,34.38,53.4,34.25,53.47z
				 M34.98,51.95c0.11-0.16,0.26-0.24,0.45-0.24c0.14,0,0.21,0.06,0.21,0.17c0,0.11-0.05,0.21-0.14,0.3
				c-0.09,0.08-0.2,0.13-0.33,0.15c-0.06,0-0.12-0.02-0.17-0.07c-0.05-0.04-0.08-0.1-0.08-0.16C34.95,52.02,34.97,51.97,34.98,51.95
				z"/>
			<path class="st10" d="M37.39,52.5c0.16-0.29,0.31-0.53,0.43-0.72c0.13-0.19,0.26-0.36,0.38-0.49c0.12-0.13,0.24-0.2,0.34-0.2
				c0.06,0,0.11,0.02,0.15,0.06c0.04,0.04,0.06,0.09,0.06,0.15c0,0.12-0.1,0.31-0.31,0.57c-0.44,0.56-0.75,0.98-0.93,1.25
				c-0.07,0.11-0.12,0.27-0.13,0.46c0.02,0.16,0.06,0.23,0.13,0.23c0.08,0,0.17-0.03,0.29-0.1c0.12-0.07,0.34-0.22,0.67-0.44
				l0.06,0.19c-0.67,0.59-1.14,0.87-1.42,0.81c-0.17-0.03-0.26-0.17-0.27-0.4c0.02-0.16,0.04-0.28,0.06-0.37
				c-0.38,0.29-0.61,0.47-0.72,0.54c-0.11,0.07-0.22,0.11-0.33,0.11c-0.13-0.01-0.24-0.09-0.32-0.24c-0.08-0.14-0.12-0.28-0.12-0.42
				c0-0.29,0.23-0.57,0.68-0.84c0.1-0.06,0.25-0.13,0.47-0.21c0.21-0.09,0.39-0.13,0.54-0.13C37.27,52.35,37.36,52.4,37.39,52.5z
				 M37.19,52.78c-0.47,0.14-0.79,0.26-0.97,0.36c-0.18,0.1-0.27,0.26-0.27,0.48c0,0.05,0.03,0.08,0.08,0.09
				c0.07,0.02,0.27-0.1,0.61-0.36C36.99,53.1,37.17,52.91,37.19,52.78z"/>
			<path class="st10" d="M39.1,53.48c-0.01,0.04-0.02,0.08-0.04,0.13c0,0.08,0.04,0.14,0.11,0.19c0.07,0.05,0.16,0.07,0.28,0.08
				c0.03-0.01,0.07-0.01,0.11-0.01c0.11-0.02,0.21-0.05,0.31-0.09c0.1-0.04,0.24-0.12,0.41-0.23c0.17-0.11,0.32-0.21,0.42-0.29
				l0.06,0.21c-0.31,0.29-0.6,0.5-0.88,0.65c-0.27,0.14-0.52,0.21-0.73,0.21c-0.2,0-0.37-0.06-0.49-0.19
				c-0.12-0.13-0.18-0.29-0.19-0.48c-0.01-0.19,0.06-0.4,0.2-0.61c0.15-0.22,0.35-0.4,0.6-0.54c0.25-0.14,0.52-0.22,0.79-0.23
				c0.31-0.01,0.47,0.08,0.47,0.27c0,0.11-0.05,0.21-0.14,0.31c-0.13,0.15-0.32,0.28-0.56,0.38C39.6,53.32,39.35,53.41,39.1,53.48z
				 M39.11,53.23c0.26-0.08,0.47-0.19,0.64-0.32C39.92,52.78,40,52.67,40,52.6c0-0.01,0-0.02,0-0.03c0,0-0.01-0.01-0.01-0.01
				c-0.03-0.02-0.1-0.01-0.21,0.04c-0.12,0.05-0.24,0.13-0.36,0.23C39.29,52.94,39.19,53.08,39.11,53.23z"/>
		</g>
	</g>
	<path class="st11" d="M24.57,49.81v-0.66c0,0-0.34,0.14-1.11,0.18c-0.77,0-3.8,0-3.8,0s-0.72,0.06-0.93,0.24
		c0.25,0.11,0.19,0.25,1.22,0.25C20.97,49.81,24.57,49.81,24.57,49.81z"/>
	<path class="st3" d="M35.72,49.79v-0.67c0,0,0.33,0.2,1.07,0.23c0.74,0,3.65,0,3.65,0s0.74,0.05,0.93,0.21
		c-0.24,0.1-0.23,0.23-1.21,0.23C39.18,49.8,35.72,49.79,35.72,49.79z"/>
	<path class="st11" d="M35.44,49.79v-0.67c0,0,0.35,0.2,1.12,0.23c0.77,0,3.83,0,3.83,0s0.77,0.05,0.98,0.21
		c-0.25,0.1-0.24,0.23-1.27,0.23C39.07,49.8,35.44,49.79,35.44,49.79z"/>
	<path class="st3" d="M7.48,48.81l15.64,0.03c0,0,1.14-0.04,1.4,0.27c-0.13,0.07-0.34,0.23-1.4,0.23c-1.06,0-3.44,0.02-3.44,0.02
		s-0.75,0.02-0.9,0.25c0.07,0.1,0.66,0.2,0.89,0.2c0.23,0,20.62,0,20.62,0s0.77,0.05,1.08-0.24c-0.17-0.12-0.35-0.22-1.11-0.22
		c-0.76,0-3.51,0-3.51,0s-0.58-0.01-1.01-0.25c0.26-0.17,0.43-0.25,1.03-0.25c0.59,0,16.05,0,16.05,0l-5.68,3.39l5.66,3.37
		l-11.24,0.03v0.72c0,0-0.37,0.23-1.41,0.23c-1.95,0-1.13,0-19.99,0c0,0-0.99-0.03-1.37-0.23c-0.01-0.27,0-0.72,0-0.72H7.45
		l5.68-3.35L7.48,48.81z"/>
	<path class="st2" d="M7.33,48.91c0,0,5.19,3.19,5.49,3.38c-0.3,0.18-5.88,3.46-5.88,3.46s11.42,0,11.63,0c0,0.16,0,0.68,0,0.68
		l0.06,0.03c0.4,0.21,1.38,0.24,1.42,0.25h20c1.05,0,1.45-0.24,1.47-0.25l0.05-0.04c0,0,0-0.51,0-0.67c0.21,0,11.54-0.03,11.54-0.03
		s-5.53-3.3-5.84-3.48c0.31-0.18,5.86-3.5,5.86-3.5H36.68c-0.61,0-0.8,0.08-1.09,0.27l-0.16,0.1l0.16,0.09
		c0.45,0.26,1.04,0.26,1.06,0.26h3.51c0.52,0,0.8,0.06,0.97,0.12c-0.29,0.12-0.75,0.13-0.93,0.12H19.59c-0.18,0-0.49-0.05-0.68-0.11
		c0.18-0.07,0.48-0.11,0.69-0.11c0,0,3.43-0.02,3.43-0.02c1.03,0,1.28-0.15,1.43-0.23l0.12-0.07l-0.06-0.12
		c-0.29-0.34-1.37-0.31-1.49-0.31L6.99,48.7L7.33,48.91z M13.1,52.38l0.16-0.1c0,0-4.87-3-5.47-3.37c0.75,0,15.25,0.03,15.25,0.03
		c0.35-0.01,0.89,0.02,1.17,0.14c-0.17,0.06-0.48,0.13-1.17,0.13l-3.44,0.02c-0.14,0-0.82,0.03-0.99,0.3l-0.04,0.07l0.05,0.06
		c0.12,0.16,0.82,0.24,0.98,0.24h20.62c0.08,0,0.91,0.04,1.25-0.27l0.1-0.09l-0.12-0.08c-0.18-0.12-0.47-0.25-1.27-0.25h-3.51
		c0,0-0.4-0.01-0.76-0.15c0.16-0.08,0.36-0.12,0.78-0.12c0,0,14.87,0,15.64,0c-0.62,0.37-5.49,3.28-5.49,3.28s4.85,2.89,5.47,3.26
		c-0.75,0-10.95,0.03-10.95,0.03s0,0.64,0,0.76c-0.11,0.05-0.49,0.2-1.3,0.2h-20c-0.01,0-0.87-0.03-1.26-0.2c0-0.12,0-0.75,0-0.75
		l-0.11,0c0,0-10.16,0-10.92,0C8.39,55.16,13.1,52.38,13.1,52.38z"/>
	<g>
		<polygon class="st2" points="41.27,49.57 41.36,55.64 41.58,55.64 41.49,49.57 		"/>
		<rect x="18.57" y="49.61" class="st2" width="0.22" height="5.97"/>
	</g>
	<path class="st0" d="M19.97,52.82c0.36-0.32,0.7-0.64,1.01-0.96c0.31-0.32,0.49-0.57,0.54-0.73c-0.26,0.19-0.54,0.44-0.85,0.77
		C20.36,52.22,20.13,52.53,19.97,52.82z M21.1,53.53c0.04,0,0.08,0.01,0.1,0.01c0.19-0.01,0.38-0.08,0.55-0.2l0.05,0.17
		c-0.24,0.24-0.56,0.36-0.96,0.34c-0.35,0.34-0.68,0.54-1,0.59c-0.16,0.02-0.29-0.04-0.4-0.18c-0.11-0.15-0.16-0.34-0.16-0.59
		c0-0.26,0.06-0.53,0.19-0.83c0.12-0.3,0.31-0.58,0.56-0.84c0.18-0.21,0.44-0.45,0.77-0.71c0.33-0.26,0.63-0.45,0.9-0.57
		c0.06-0.02,0.1-0.03,0.14-0.03c0.11,0,0.16,0.07,0.16,0.21c0,0.12-0.04,0.25-0.11,0.38c-0.14,0.23-0.33,0.46-0.56,0.7
		c-0.23,0.23-0.49,0.47-0.78,0.72c-0.29,0.25-0.55,0.47-0.77,0.67c-0.02,0.05-0.03,0.12-0.05,0.22c0,0.1,0.03,0.19,0.08,0.26
		c0.05,0.07,0.13,0.11,0.21,0.12c0.14-0.01,0.28-0.11,0.43-0.29c-0.04-0.05-0.07-0.12-0.08-0.2c0-0.18,0.1-0.37,0.3-0.56
		c0.2-0.2,0.38-0.29,0.53-0.29c0.12,0,0.19,0.07,0.2,0.2c0,0.08-0.01,0.16-0.04,0.24c-0.03,0.08-0.08,0.17-0.14,0.28
		C21.16,53.43,21.12,53.5,21.1,53.53z"/>
	<path class="st0" d="M23.02,52.92c-0.29,0.14-0.52,0.27-0.67,0.39c-0.15,0.12-0.23,0.28-0.25,0.49c-0.01,0.14,0.07,0.21,0.25,0.22
		c0.17-0.01,0.34-0.08,0.5-0.22c-0.05-0.08-0.08-0.17-0.1-0.24C22.77,53.39,22.86,53.18,23.02,52.92z M23.53,52.67
		c0.15,0.02,0.23,0.12,0.23,0.3c0,0.19-0.08,0.41-0.24,0.65c0.03,0,0.06,0,0.07,0.01c0.13-0.01,0.31-0.11,0.54-0.31l0.07,0.24
		c-0.14,0.16-0.28,0.28-0.44,0.34c-0.16,0.06-0.34,0.1-0.54,0.1c-0.3,0.26-0.59,0.4-0.89,0.4c-0.22,0-0.38-0.08-0.5-0.24
		c-0.12-0.16-0.18-0.34-0.18-0.55c0-0.24,0.08-0.45,0.25-0.64c0.17-0.2,0.38-0.35,0.63-0.47c0.26-0.11,0.52-0.17,0.78-0.17
		c0.23,0,0.34,0.06,0.34,0.17C23.66,52.57,23.61,52.63,23.53,52.67z"/>
	<path class="st0" d="M25.85,53.17l-0.01-0.01c-0.15,0.1-0.3,0.21-0.44,0.33c-0.14,0.13-0.29,0.27-0.43,0.43
		c-0.15,0.16-0.23,0.25-0.25,0.27c-0.1,0.09-0.21,0.14-0.32,0.16c-0.09,0-0.16-0.06-0.22-0.14c-0.06-0.08-0.09-0.2-0.09-0.35
		c-0.01-0.13,0.03-0.29,0.12-0.48c0.09-0.19,0.2-0.35,0.31-0.47c0.15-0.16,0.25-0.25,0.3-0.28c0.04-0.03,0.12-0.04,0.24-0.04h0.14
		c0.12,0,0.18,0.04,0.18,0.11c0,0.06-0.04,0.13-0.12,0.22c-0.08,0.09-0.19,0.2-0.34,0.34c-0.14,0.14-0.23,0.22-0.26,0.27
		c-0.02,0.03-0.03,0.05-0.04,0.07c0,0.03,0.02,0.04,0.06,0.06c0.05-0.01,0.09-0.03,0.1-0.06c0.24-0.25,0.52-0.48,0.84-0.7
		c0.07-0.06,0.22-0.16,0.47-0.31c0.25-0.14,0.41-0.22,0.5-0.23c0.03,0,0.07,0.05,0.11,0.14c0.04,0.1,0.06,0.18,0.06,0.25
		c0,0.05,0,0.08-0.01,0.09c-0.05,0.06-0.14,0.16-0.27,0.29c-0.14,0.13-0.24,0.24-0.32,0.34c-0.08,0.1-0.12,0.18-0.12,0.26
		c0.01,0.03,0.02,0.05,0.02,0.06c0.01,0.02,0.02,0.03,0.03,0.04c0.01,0.01,0.02,0.02,0.04,0.03c0.08-0.01,0.19-0.05,0.32-0.14
		c0.13-0.09,0.33-0.23,0.58-0.41l0.05,0.23c-0.32,0.28-0.59,0.5-0.83,0.67c-0.23,0.17-0.43,0.25-0.59,0.25
		c-0.11,0-0.18-0.03-0.21-0.07c-0.03-0.06-0.07-0.15-0.11-0.28C25.33,53.91,25.5,53.6,25.85,53.17z"/>
	<path class="st0" d="M28.84,52.89L28.84,52.89c-0.36,0.1-0.64,0.19-0.85,0.26c-0.21,0.08-0.4,0.18-0.56,0.3
		c-0.17,0.13-0.24,0.27-0.22,0.42c0,0.06,0.04,0.09,0.11,0.11c0.13,0,0.34-0.12,0.64-0.35C28.25,53.41,28.55,53.16,28.84,52.89z
		 M29.2,52.73c0.11,0.05,0.17,0.12,0.17,0.2c0,0.09-0.05,0.19-0.15,0.29c-0.24,0.25-0.36,0.43-0.37,0.55
		c0.01,0.07,0.06,0.12,0.15,0.12c0.17,0.02,0.47-0.13,0.9-0.45l0.05,0.22c-0.23,0.21-0.5,0.4-0.79,0.59
		c-0.3,0.19-0.51,0.27-0.65,0.25c-0.15-0.03-0.22-0.12-0.24-0.27c0.01-0.17,0.09-0.38,0.24-0.63l-0.01-0.01
		c-0.15,0.11-0.3,0.22-0.46,0.34c-0.16,0.12-0.3,0.21-0.42,0.29c-0.12,0.07-0.22,0.12-0.29,0.14c-0.09,0.03-0.21-0.04-0.35-0.19
		c-0.14-0.15-0.21-0.3-0.21-0.46c0-0.07,0.01-0.11,0.01-0.13c0.05-0.2,0.21-0.39,0.47-0.58c0.26-0.19,0.55-0.34,0.89-0.47
		c0.33-0.12,0.61-0.19,0.82-0.21h0.06c0.1,0,0.19,0.02,0.27,0.07c0.08,0.05,0.12,0.11,0.12,0.19C29.41,52.65,29.34,52.7,29.2,52.73z
		"/>
	<path class="st0" d="M32.1,55.28c0.18-0.1,0.34-0.25,0.46-0.44c0.13-0.2,0.17-0.4,0.14-0.61c-0.06,0-0.11,0-0.15,0.01
		c-0.12-0.01-0.21-0.04-0.27-0.07c-0.19,0.31-0.29,0.55-0.3,0.7C31.99,54.99,32.03,55.13,32.1,55.28z M31.88,54
		c-0.13-0.14-0.19-0.25-0.19-0.34c0-0.15,0.16-0.29,0.49-0.41c0.13-0.05,0.23-0.13,0.31-0.24c0.09-0.12,0.25-0.37,0.49-0.75
		c0.25-0.38,0.47-0.69,0.66-0.92c0.18-0.2,0.33-0.31,0.43-0.31c0.08,0,0.11,0.08,0.11,0.24c0,0.17-0.06,0.34-0.16,0.51
		c-0.11,0.17-0.32,0.46-0.65,0.85c-0.32,0.4-0.54,0.66-0.65,0.81c0.05,0.02,0.09,0.05,0.13,0.1c0.04,0.05,0.08,0.1,0.12,0.17
		c0.03,0.07,0.06,0.12,0.07,0.16l0.82-0.45l0.07,0.19c-0.24,0.22-0.51,0.4-0.79,0.53c0.05,0.18,0.03,0.37-0.06,0.56
		c-0.08,0.19-0.2,0.36-0.36,0.51c-0.15,0.15-0.31,0.27-0.48,0.36c-0.17,0.09-0.33,0.15-0.46,0.16c-0.11,0.01-0.19-0.06-0.25-0.21
		c-0.06-0.15-0.09-0.3-0.09-0.45c0-0.16,0.03-0.3,0.09-0.44C31.61,54.49,31.72,54.29,31.88,54z"/>
	<path class="st0" d="M35.06,52c0.11-0.16,0.26-0.25,0.46-0.25c0.14,0,0.21,0.06,0.21,0.18c0,0.12-0.05,0.22-0.14,0.31
		c-0.09,0.08-0.2,0.14-0.34,0.16c-0.07,0-0.12-0.02-0.17-0.07c-0.05-0.04-0.07-0.1-0.08-0.17C35.02,52.08,35.04,52.02,35.06,52z
		 M34.32,53.58c0,0.03,0,0.05-0.01,0.08c0,0.09,0.03,0.15,0.08,0.19c0.06,0.04,0.14,0.06,0.25,0.06c0.12,0,0.23-0.02,0.33-0.08
		c0.1-0.06,0.29-0.17,0.56-0.37l0.05,0.2c-0.24,0.28-0.48,0.49-0.73,0.63c-0.25,0.14-0.46,0.19-0.62,0.16
		c-0.28-0.07-0.42-0.28-0.42-0.64c0-0.39,0.21-0.75,0.62-1.08c0.17-0.15,0.33-0.22,0.5-0.22c0.07,0,0.12,0.01,0.17,0.04
		c0.05,0.03,0.08,0.07,0.08,0.13c0,0.12-0.11,0.28-0.33,0.48C34.62,53.36,34.45,53.5,34.32,53.58z"/>
	<path class="st0" d="M37.29,52.86c-0.47,0.14-0.8,0.27-0.98,0.37c-0.18,0.11-0.27,0.27-0.27,0.5c0,0.05,0.03,0.08,0.09,0.09
		c0.07,0.02,0.27-0.1,0.61-0.37C37.08,53.19,37.27,52.99,37.29,52.86z M37.49,52.57c0.16-0.3,0.31-0.54,0.44-0.74
		c0.13-0.2,0.26-0.37,0.38-0.51c0.13-0.13,0.24-0.2,0.35-0.2c0.06,0,0.11,0.02,0.15,0.07c0.04,0.04,0.06,0.09,0.06,0.16
		c0,0.12-0.1,0.31-0.31,0.59c-0.45,0.58-0.76,1.01-0.94,1.3c-0.07,0.12-0.11,0.28-0.13,0.48c0.02,0.16,0.06,0.25,0.13,0.25
		c0.08,0,0.18-0.03,0.29-0.11c0.12-0.07,0.35-0.22,0.68-0.45l0.06,0.2c-0.67,0.61-1.15,0.9-1.43,0.84
		c-0.17-0.04-0.26-0.17-0.27-0.42c0.01-0.17,0.04-0.29,0.06-0.38c-0.38,0.3-0.62,0.49-0.72,0.56c-0.11,0.08-0.22,0.12-0.34,0.12
		c-0.14-0.01-0.25-0.09-0.33-0.25c-0.09-0.15-0.13-0.29-0.13-0.43c0-0.3,0.23-0.6,0.69-0.88c0.1-0.06,0.25-0.13,0.47-0.22
		c0.22-0.09,0.4-0.13,0.54-0.13C37.37,52.41,37.46,52.47,37.49,52.57z"/>
	<path class="st0" d="M39.23,53.34c0.26-0.09,0.48-0.2,0.65-0.34c0.17-0.14,0.25-0.24,0.25-0.32c0-0.01,0-0.02,0-0.03
		c0-0.01,0-0.01-0.01-0.01c-0.03-0.02-0.1-0.01-0.21,0.04c-0.12,0.05-0.24,0.13-0.37,0.24C39.41,53.04,39.31,53.17,39.23,53.34z
		 M39.22,53.59c-0.01,0.04-0.03,0.09-0.04,0.13c0,0.08,0.04,0.15,0.11,0.2c0.07,0.04,0.17,0.07,0.28,0.08
		c0.03-0.01,0.07-0.01,0.11-0.01c0.1-0.02,0.21-0.05,0.3-0.09c0.1-0.04,0.24-0.12,0.42-0.24c0.18-0.12,0.32-0.22,0.43-0.3l0.06,0.22
		c-0.32,0.3-0.61,0.52-0.88,0.67c-0.28,0.15-0.52,0.22-0.74,0.22c-0.21,0-0.37-0.07-0.5-0.2c-0.12-0.13-0.18-0.3-0.19-0.5
		c-0.01-0.2,0.06-0.42,0.2-0.64c0.15-0.22,0.35-0.41,0.6-0.56c0.25-0.15,0.52-0.23,0.8-0.24c0.32-0.01,0.48,0.08,0.48,0.28
		c0,0.11-0.05,0.22-0.14,0.33c-0.13,0.16-0.32,0.29-0.56,0.39C39.72,53.42,39.47,53.51,39.22,53.59z"/>
	<g>
		<path class="st12" d="M5.48,38.34c-0.01,0.31,0.01,0.56,0.07,0.75c0.06,0.2,0.18,0.4,0.35,0.58l0.78-0.24
			c0.01-0.15,0.04-0.29,0.07-0.42c-0.26-0.26-0.48-0.54-0.68-0.85L5.48,38.34z M4.49,38.65c0.16,0.23,0.27,0.44,0.33,0.63
			c0.06,0.21,0.09,0.44,0.08,0.7l0.8-0.25c-0.17-0.2-0.29-0.4-0.35-0.6c-0.06-0.2-0.08-0.44-0.06-0.73L4.49,38.65z M4.72,40.04
			c0.01-0.27-0.02-0.51-0.08-0.7c-0.06-0.2-0.17-0.41-0.33-0.63C4.1,38.77,3.95,38.87,3.86,39c-0.09,0.13-0.16,0.34-0.18,0.63
			c0.31,0.26,0.52,0.44,0.62,0.54L4.72,40.04z M1.3,40.79c0.24,0.28,0.43,0.46,0.57,0.54c0.13,0.08,0.28,0.12,0.43,0.12
			c0.15,0,0.39-0.05,0.71-0.15l1.8-0.56c0.32-0.1,0.57-0.15,0.75-0.14c0.18,0.01,0.38,0.07,0.59,0.19c0.21,0.12,0.54,0.39,1,0.81
			c-0.13-0.26-0.23-0.51-0.3-0.75c-0.13-0.41-0.19-0.81-0.19-1.2L3,40.8l-0.06-0.21l1.17-0.36c-0.37-0.34-0.72-0.57-1.04-0.69
			c-0.32-0.12-0.63-0.13-0.93-0.04c-0.25,0.08-0.44,0.22-0.57,0.43C1.43,40.14,1.34,40.43,1.3,40.79z M0.63,40.16
			c-0.01-0.34,0.03-0.61,0.14-0.81c0.15-0.29,0.38-0.49,0.67-0.58c0.24-0.07,0.51-0.06,0.82,0.03c0.31,0.09,0.71,0.32,1.21,0.68
			c-0.09-0.41-0.12-0.72-0.08-0.94c0.04-0.22,0.12-0.38,0.24-0.5c0.12-0.12,0.36-0.23,0.7-0.34l1.51-0.47
			c0.45,1.02,1.1,1.81,1.94,2.37c-0.1,0.31-0.14,0.6-0.15,0.85c-0.01,0.41,0.06,0.84,0.19,1.26c0.16,0.53,0.4,0.92,0.71,1.17
			c0.21,0.17,0.38,0.23,0.52,0.19c0.05-0.02,0.12-0.07,0.21-0.17c0.08-0.1,0.16-0.15,0.22-0.17c0.06-0.02,0.12-0.01,0.17,0.02
			c0.06,0.03,0.09,0.07,0.11,0.13c0.03,0.08,0.01,0.17-0.05,0.26c-0.06,0.09-0.15,0.16-0.27,0.19c-0.11,0.04-0.26,0.04-0.43,0
			C8.84,43.3,8.58,43.19,8.22,43c-0.36-0.19-0.61-0.3-0.76-0.34c-0.15-0.04-0.28-0.04-0.39,0c-0.13,0.04-0.22,0.12-0.28,0.23
			C6.74,43,6.73,43.13,6.77,43.26c0.04,0.12,0.1,0.21,0.19,0.26c0.09,0.06,0.22,0.07,0.39,0.05l0.04,0.16
			c-0.06,0.02-0.1,0.03-0.12,0.04c-0.25,0.08-0.48,0.06-0.69-0.06c-0.21-0.12-0.36-0.32-0.45-0.6c-0.01-0.03-0.02-0.08-0.04-0.15
			c-0.28,0.09-0.47,0.2-0.57,0.32c-0.17,0.2-0.21,0.43-0.12,0.7c0.05,0.17,0.14,0.3,0.26,0.4c0.07,0.05,0.18,0.1,0.34,0.12
			L5.98,44.7c-0.29,0.06-0.54,0.02-0.77-0.12c-0.22-0.14-0.38-0.36-0.48-0.65c-0.03-0.11-0.07-0.25-0.1-0.42
			c-0.42,0.12-0.74,0.17-0.95,0.17c-0.21-0.01-0.42-0.06-0.63-0.17c-0.21-0.11-0.52-0.33-0.93-0.68c0.26,0.37,0.43,0.69,0.52,0.98
			c0.06,0.18,0.1,0.43,0.12,0.75c0.02,0.18,0.04,0.31,0.06,0.38c0.04,0.13,0.12,0.23,0.24,0.3c0.12,0.07,0.29,0.08,0.52,0.04
			l0.05,0.16c-0.27,0.07-0.5,0.09-0.7,0.06c-0.21-0.04-0.39-0.13-0.56-0.28c-0.17-0.15-0.28-0.34-0.35-0.54
			c-0.05-0.16-0.08-0.43-0.11-0.81c-0.02-0.39-0.07-0.69-0.14-0.92c-0.05-0.16-0.12-0.32-0.2-0.46c-0.08-0.14-0.22-0.32-0.4-0.54
			l0.17-0.16c0.51,0.55,0.94,0.89,1.3,1.02c0.36,0.12,0.78,0.11,1.26-0.04l1.81-0.56c0.4-0.12,0.72-0.17,0.97-0.15
			c0.25,0.02,0.55,0.12,0.92,0.31c-0.38-0.46-0.73-0.74-1.04-0.84c-0.31-0.1-0.71-0.08-1.2,0.07l-1.3,0.4
			c-0.6,0.19-1.05,0.27-1.33,0.24c-0.28-0.03-0.56-0.16-0.82-0.39C1.66,41.58,1.23,41.03,0.63,40.16z"/>
		<path class="st12" d="M1.96,34.16l0.79-0.77l0.66,0.66L2.74,34.7l0.43,0.43l2.69-0.2l0.33-0.57l-0.41-0.45l0.14-0.13l1.03,1.13
			c-0.21,0.27-0.35,0.5-0.44,0.68c-0.09,0.18-0.15,0.38-0.19,0.58l-0.09,0.01c-0.11-0.13-0.21-0.21-0.31-0.25
			c-0.1-0.03-0.29-0.04-0.56-0.02l-1.89,0.14c-0.24,0.02-0.39,0.06-0.47,0.11c-0.07,0.06-0.11,0.12-0.11,0.18
			c0.01,0.07,0.08,0.16,0.22,0.27l-0.14,0.12l-0.9-0.89c0.18-0.28,0.34-0.48,0.48-0.58c0.09-0.07,0.21-0.11,0.38-0.12L1.96,34.16z"
			/>
		<path class="st12" d="M1.99,31.68l0.73-0.8l0.33,0.39l2.51,0.13c0.26,0.01,0.44,0,0.52-0.04c0.08-0.04,0.12-0.08,0.13-0.13
			c0-0.03-0.01-0.06-0.02-0.09c-0.02-0.04-0.08-0.12-0.18-0.25l0.15-0.1l0.75,1.05c-0.19,0.24-0.36,0.39-0.52,0.45
			c-0.16,0.06-0.43,0.09-0.82,0.06L3,32.22l-0.37,0.33L1.99,31.68z M0.43,31.24l0.03-0.59l0.96,0.68l-0.01,0.2L0.43,31.24z"/>
		<path class="st12" d="M2.63,29.77l-1.36-1.52l0.02-0.13l1.25,0.23l0.15-0.92l0.51,0.08l-0.15,0.92l3.07,0.49l0.46-0.45L6.4,28.13
			l0.16-0.09l0.63,1.14c-0.4,0.29-0.7,0.64-0.9,1.06l-0.08-0.01c-0.06-0.14-0.14-0.23-0.22-0.29c-0.1-0.07-0.26-0.12-0.48-0.16
			L2.9,29.36L2.83,29.8L2.63,29.77z"/>
		<path class="st12" d="M2.91,25.72l0.88-0.63l0.24,0.45l2.43,0.65c0.26,0.07,0.43,0.09,0.52,0.07c0.09-0.02,0.14-0.06,0.15-0.1
			c0.01-0.03,0.01-0.06,0-0.09C7.11,26.02,7.07,25.92,7,25.78l0.17-0.07l0.51,1.19c-0.23,0.19-0.44,0.3-0.6,0.33
			c-0.17,0.03-0.44-0.01-0.81-0.11l-2.48-0.67l-0.43,0.24L2.91,25.72z M1.48,24.95l0.15-0.57l0.79,0.87l-0.05,0.19L1.48,24.95z"/>
		<path class="st12" d="M6.5,22.77l0.93,1.62c0.01-0.14,0.03-0.27,0.06-0.39c0.03-0.12,0.06-0.22,0.1-0.31
			c0.14-0.33,0.39-0.63,0.76-0.89l-1.23-0.52L6.5,22.77z M5.8,23.35l0.55-0.45l-0.83-1.48c-0.03,0.21-0.08,0.39-0.14,0.53
			c-0.15,0.35-0.41,0.65-0.78,0.88L5.8,23.35z M6.05,21.96l0.93-0.77l1.79,0.76c-0.08,0.25-0.11,0.49-0.1,0.73
			c0.01,0.24,0.07,0.52,0.19,0.86c-0.21,0.16-0.38,0.31-0.49,0.44c-0.11,0.14-0.21,0.29-0.28,0.46c-0.11,0.27-0.13,0.54-0.06,0.82
			c0.03,0.1,0.03,0.17,0.02,0.2C8.02,25.51,8,25.53,7.95,25.55c-0.04,0.02-0.08,0.02-0.11,0.01c-0.03-0.01-0.07-0.06-0.1-0.15
			c-0.02-0.05-0.06-0.14-0.12-0.26l-0.31-0.57L6.82,23.7l-0.9,0.73l-1.59-0.68c0.03-0.34,0.03-0.61-0.01-0.83
			c-0.04-0.22-0.13-0.44-0.26-0.68c0.3-0.3,0.53-0.56,0.69-0.75c0.11-0.14,0.19-0.29,0.26-0.43c0.07-0.16,0.09-0.3,0.06-0.42
			c-0.03-0.12-0.09-0.2-0.16-0.23c-0.05-0.02-0.12-0.01-0.19,0.02c-0.15,0.08-0.27,0.09-0.37,0.05c-0.09-0.04-0.15-0.09-0.18-0.16
			c-0.03-0.07-0.04-0.14-0.01-0.2c0.04-0.08,0.1-0.14,0.2-0.17c0.1-0.03,0.21-0.03,0.33,0.03c0.12,0.05,0.23,0.13,0.33,0.23
			c0.1,0.1,0.21,0.27,0.33,0.49L6.05,21.96z"/>
		<path class="st12" d="M5.08,16.64l0.11,0.04c0,0.26,0.04,0.47,0.14,0.63c0.09,0.15,0.28,0.33,0.57,0.51l1.27,0.81l-0.18-1.82
			c0.33-0.15,0.59-0.21,0.8-0.19c0.2,0.02,0.49,0.15,0.86,0.39l1.76,1.13c0.34,0.22,0.56,0.41,0.67,0.58
			c0.18,0.27,0.29,0.63,0.32,1.08c0.04,0.58-0.03,1.25-0.2,1.99L11,21.75c0.11-0.63,0.15-1.09,0.11-1.4
			c-0.04-0.3-0.14-0.54-0.29-0.73c-0.11-0.14-0.47-0.39-1.07-0.78l-1.62-1.04c-0.18-0.12-0.32-0.18-0.41-0.19
			c-0.13-0.01-0.29,0.03-0.48,0.12l0.1,1l2.16,1.39l0.47-0.11l0.1,1.05l-1,0.35l-0.11-0.51l-3.52-2.26
			c-0.32-0.21-0.56-0.32-0.71-0.34c-0.15-0.02-0.33,0.02-0.54,0.13l-0.07-0.11c0.13-0.11,0.24-0.2,0.34-0.25
			c0.1-0.05,0.25-0.11,0.45-0.17c-0.05-0.26-0.06-0.48-0.03-0.67C4.92,17.05,4.99,16.84,5.08,16.64z"/>
		<path class="st12" d="M15.93,12.45c0.29-0.1,0.53-0.18,0.72-0.24c0.19-0.05,0.53-0.14,1.03-0.26c0.45-0.68,0.59-1.15,0.41-1.41
			c-0.05-0.08-0.14-0.14-0.25-0.16c-0.12-0.02-0.23,0-0.35,0.07c-0.14,0.09-0.31,0.21-0.5,0.36c-0.54,0.42-0.9,0.68-1.08,0.79
			L15.93,12.45z M15.87,10.61c0.59-0.45,1-0.75,1.25-0.9c0.34-0.21,0.65-0.3,0.92-0.26c0.27,0.04,0.47,0.16,0.6,0.37
			c0.11,0.18,0.14,0.41,0.07,0.69c-0.07,0.28-0.3,0.73-0.71,1.34l0.95-0.29c0.21-0.43,0.33-0.82,0.37-1.18
			c0.03-0.36-0.04-0.69-0.23-0.99c-0.12-0.19-0.3-0.35-0.53-0.46c-0.23-0.11-0.51-0.15-0.82-0.11c-0.31,0.04-0.63,0.16-0.95,0.35
			c-0.26,0.16-0.57,0.39-0.94,0.68L15.87,10.61z M16.98,13.01c-0.81,0.19-1.43,0.42-1.85,0.67c-0.22,0.13-0.36,0.29-0.42,0.46
			c-0.05,0.12-0.04,0.23,0.02,0.32c0.06,0.1,0.16,0.15,0.28,0.16c0.2,0.01,0.43-0.06,0.69-0.23C16.11,14.15,16.53,13.69,16.98,13.01
			z M15.64,10.02c-0.32,0.26-0.64,0.5-0.96,0.7c-0.36,0.22-0.64,0.34-0.84,0.35c-0.2,0.01-0.39-0.05-0.57-0.18
			c-0.12,0.24-0.12,0.44-0.01,0.62c0.1,0.16,0.26,0.25,0.47,0.26c0.28,0.02,0.65-0.12,1.12-0.42c0.22-0.14,0.5-0.33,0.82-0.59
			L15.64,10.02z M15.58,8.07c-0.54,0.06-0.95,0.12-1.23,0.2c-0.28,0.08-0.5,0.17-0.68,0.28c-0.25,0.15-0.41,0.35-0.48,0.58
			c-0.07,0.23-0.05,0.44,0.06,0.63c0.11,0.18,0.27,0.29,0.48,0.32c0.21,0.03,0.45-0.04,0.72-0.2c0.18-0.11,0.57-0.39,1.16-0.83
			L15.58,8.07z M13.39,7.74l2.17-0.52l-0.01-0.31c0-0.11,0-0.19,0.01-0.22c0.01-0.03,0.03-0.06,0.05-0.07
			c0.03-0.02,0.05-0.02,0.08-0.01c0.03,0.01,0.05,0.02,0.06,0.04c0.02,0.04,0.03,0.13,0.04,0.28l0.03,1.97l0.64-0.46
			c0.2-0.14,0.46-0.26,0.78-0.36c0.32-0.11,0.62-0.15,0.9-0.14c0.28,0.01,0.54,0.08,0.77,0.2c0.23,0.12,0.41,0.29,0.55,0.51
			c0.26,0.42,0.33,0.93,0.23,1.55c-0.1,0.62-0.47,1.43-1.09,2.43c-0.39,0.08-0.83,0.19-1.32,0.32c-0.53,0.8-1.03,1.35-1.51,1.65
			c-0.34,0.21-0.65,0.3-0.93,0.26c-0.28-0.04-0.48-0.15-0.6-0.35c-0.13-0.21-0.14-0.47-0.02-0.78c0.11-0.31,0.39-0.6,0.82-0.87
			c0.17-0.11,0.39-0.21,0.66-0.32l-0.02-0.77l-0.55,0.4c-0.13,0.09-0.33,0.18-0.59,0.29c-0.26,0.1-0.49,0.16-0.69,0.16
			c-0.2,0-0.39-0.04-0.54-0.13c-0.16-0.09-0.28-0.2-0.37-0.35c-0.14-0.23-0.19-0.49-0.13-0.77c0.03-0.18,0.14-0.39,0.33-0.63
			l-0.03-0.04c-0.15-0.24-0.22-0.59-0.19-1.04C12.94,9.2,13.1,8.56,13.39,7.74z"/>
		<path class="st12" d="M19.8,7.15l0.69-1.92l0.13-0.05l0.39,1.2l0.88-0.31l0.17,0.49l-0.88,0.31l1.03,2.93l0.62,0.2l0.21-0.32
			l0.16,0.1l-0.7,1.1c-0.45-0.22-0.9-0.31-1.36-0.29l-0.03-0.08c0.09-0.12,0.14-0.23,0.15-0.33c0.01-0.13-0.02-0.29-0.09-0.49
			l-0.88-2.5l-0.42,0.15L19.8,7.15z"/>
		<path class="st12" d="M25.33,7.58L24.12,7.3c-0.1,0.4-0.12,0.74-0.06,1.02c0.1,0.49,0.4,0.85,0.92,1.08l0.58-0.68L25.33,7.58z
			 M25.07,6.24l-1.66-0.16l0.79,1.06l1.1,0.25L25.07,6.24z M26.04,5.17l0.18,0.02c-0.11,0.29-0.18,0.5-0.2,0.64
			c-0.02,0.14,0,0.33,0.04,0.56l0.38,1.93c0.06,0.32,0.13,0.52,0.19,0.59c0.06,0.07,0.12,0.1,0.19,0.09
			c0.03-0.01,0.07-0.02,0.1-0.05c0.02-0.02,0.07-0.08,0.16-0.2l0.13,0.12l-0.8,1.02c-0.27-0.13-0.46-0.27-0.56-0.39
			c-0.11-0.13-0.19-0.32-0.25-0.57l-1.18,1.36c-0.61-0.32-0.95-0.69-1.03-1.1c-0.05-0.27-0.05-0.54,0.02-0.81
			c0.09-0.35,0.27-0.77,0.56-1.26l-0.78-1.05l0.04-0.14c0.12-0.01,0.21-0.03,0.27-0.04c0.36-0.07,0.65-0.27,0.87-0.6
			c0.25,0.08,0.51,0.14,0.79,0.16c0.28,0.03,0.49,0.03,0.63,0c0.06-0.01,0.11-0.03,0.14-0.06C25.94,5.37,25.99,5.29,26.04,5.17z"/>
		<path class="st12" d="M30.47,4.73l0.63,0.68l0.45-0.43l0.14,0.13c-0.22,0.2-0.35,0.35-0.39,0.45c-0.06,0.14-0.09,0.32-0.09,0.56
			l0.02,2.19c0,0.2,0.03,0.35,0.1,0.45c0.04,0.06,0.09,0.1,0.14,0.1c0.04,0,0.14-0.06,0.3-0.18l0.11,0.14L30.9,9.64
			c-0.26-0.19-0.43-0.36-0.51-0.51c-0.08-0.15-0.11-0.39-0.12-0.72l-0.02-2.53l-0.43-0.43l-0.78,0.63l0.02,2.57L29.42,9l-0.81,0.66
			l-0.83-0.65l0.34-0.34l-0.02-2.35c0-0.33-0.04-0.56-0.11-0.68c-0.05-0.08-0.1-0.12-0.16-0.12c-0.06,0-0.15,0.06-0.28,0.18
			l-0.11-0.14l0.98-0.81c0.27,0.2,0.45,0.36,0.51,0.48c0.07,0.12,0.1,0.28,0.11,0.49l0,0.17L30.47,4.73z"/>
		<path class="st12" d="M35.19,6.55l-0.83-0.82c-0.1,0.05-0.2,0.1-0.3,0.13l-0.5,2.76l1.12,0.76L35.19,6.55z M33.22,3.3l2.74,2.69
			c0.07-0.1,0.14-0.18,0.21-0.23c0.07-0.05,0.17-0.09,0.3-0.12l-0.03,0.18c-0.07,0.07-0.12,0.14-0.16,0.2
			c-0.03,0.06-0.06,0.2-0.1,0.4l-0.55,3.06c-0.41,0.08-0.73,0.15-0.93,0.22c-0.21,0.07-0.44,0.18-0.69,0.32
			c-0.32-0.3-0.61-0.53-0.87-0.69c-0.26-0.16-0.55-0.28-0.87-0.37l0.01-0.09c0.13-0.07,0.22-0.15,0.27-0.24
			c0.05-0.09,0.1-0.28,0.16-0.58l0.43-2.37c0.44-0.04,0.76-0.11,0.96-0.22l-1.06-1.04L33.22,3.3z"/>
		<path class="st12" d="M39.43,7.58L38.1,6.57l0.12,1.32l0.8,0.79L39.43,7.58z M38.95,8.85l-0.89-0.87
			c-0.3,0.29-0.49,0.57-0.59,0.84c-0.17,0.47-0.1,0.93,0.22,1.4l0.85-0.27L38.95,8.85z M40.82,7.17l0.14,0.11
			c-0.25,0.19-0.42,0.33-0.51,0.45C40.37,7.84,40.28,8,40.2,8.22l-0.68,1.85c-0.11,0.31-0.16,0.51-0.15,0.6
			c0.01,0.09,0.05,0.15,0.11,0.17c0.03,0.01,0.07,0.02,0.11,0.01c0.03-0.01,0.11-0.03,0.24-0.08l0.05,0.17l-1.22,0.45
			c-0.16-0.26-0.25-0.47-0.27-0.63c-0.02-0.16,0-0.37,0.09-0.62l-1.71,0.55c-0.35-0.59-0.45-1.08-0.31-1.47
			c0.1-0.26,0.24-0.49,0.44-0.68c0.25-0.25,0.63-0.51,1.14-0.79l-0.12-1.31l0.11-0.1c0.11,0.05,0.19,0.09,0.25,0.11
			c0.34,0.13,0.69,0.11,1.05-0.06c0.17,0.2,0.36,0.38,0.59,0.55c0.22,0.17,0.4,0.27,0.54,0.32c0.06,0.02,0.11,0.03,0.15,0.02
			C40.63,7.28,40.71,7.24,40.82,7.17z"/>
		<path class="st12" d="M44.49,8.88l0.2,1.08l-0.92,0.18l-0.16-0.92l-0.6,0.12l-1.33,2.34l0.29,0.59l0.6-0.09l0.03,0.18l-1.51,0.23
			c-0.11-0.32-0.22-0.57-0.32-0.74c-0.1-0.17-0.23-0.33-0.38-0.48l0.04-0.07c0.17-0.02,0.29-0.06,0.38-0.12
			c0.08-0.06,0.19-0.22,0.33-0.46l0.94-1.64c0.12-0.21,0.17-0.36,0.17-0.45c-0.01-0.09-0.04-0.16-0.09-0.19
			c-0.06-0.03-0.18-0.02-0.35,0.03L41.77,8.3l1.24-0.25c0.13,0.31,0.2,0.55,0.22,0.72c0.01,0.11-0.03,0.24-0.11,0.38L44.49,8.88z"/>
		<path class="st12" d="M47.02,12.32l-0.34-1.12c-0.11,0-0.22-0.01-0.33-0.02l-1.76,2.19l0.62,1.2L47.02,12.32z M46.85,8.52
			l1.12,3.67c0.11-0.06,0.21-0.09,0.29-0.1c0.08-0.01,0.19,0,0.32,0.04l-0.12,0.15c-0.1,0.03-0.18,0.06-0.23,0.1
			c-0.06,0.04-0.15,0.14-0.28,0.31L46,15.1c-0.4-0.13-0.71-0.22-0.92-0.25c-0.22-0.04-0.47-0.05-0.76-0.05
			c-0.14-0.42-0.28-0.76-0.44-1.03c-0.15-0.26-0.35-0.51-0.59-0.74l0.05-0.07c0.15,0,0.27-0.03,0.35-0.08
			c0.09-0.05,0.23-0.2,0.42-0.44l1.51-1.87c0.41,0.18,0.72,0.26,0.95,0.26l-0.43-1.43L46.85,8.52z"/>
		<path class="st12" d="M55.85,20.95c0-0.55-0.02-0.96-0.07-1.24c-0.05-0.28-0.12-0.52-0.21-0.71c-0.13-0.26-0.31-0.44-0.53-0.54
			c-0.22-0.09-0.44-0.09-0.63,0c-0.19,0.09-0.31,0.24-0.37,0.44c-0.05,0.2-0.01,0.45,0.13,0.73c0.09,0.19,0.33,0.6,0.71,1.24
			L55.85,20.95z M53.91,20.81c-0.23-0.34-0.43-0.69-0.6-1.03c-0.19-0.38-0.27-0.67-0.26-0.87c0.01-0.2,0.09-0.38,0.23-0.55
			c-0.23-0.14-0.43-0.16-0.62-0.07c-0.17,0.08-0.27,0.23-0.31,0.44c-0.04,0.28,0.06,0.66,0.3,1.16c0.12,0.24,0.28,0.53,0.5,0.87
			L53.91,20.81z M53.29,20.98c0.39,0.63,0.64,1.07,0.77,1.33c0.18,0.36,0.23,0.67,0.17,0.94c-0.07,0.27-0.21,0.46-0.43,0.56
			c-0.19,0.09-0.42,0.09-0.7,0c-0.27-0.09-0.69-0.37-1.26-0.84l0.2,0.97c0.4,0.25,0.78,0.41,1.14,0.48c0.36,0.07,0.69,0.03,1-0.13
			c0.2-0.1,0.38-0.26,0.51-0.48c0.14-0.22,0.2-0.49,0.19-0.81c-0.01-0.32-0.1-0.64-0.26-0.98c-0.13-0.27-0.33-0.61-0.58-1
			L53.29,20.98z M51.45,20.86c0.07,0.3,0.13,0.54,0.16,0.74c0.04,0.19,0.09,0.54,0.15,1.05c0.63,0.51,1.08,0.7,1.37,0.55
			c0.09-0.04,0.15-0.12,0.18-0.24c0.03-0.11,0.02-0.23-0.04-0.35c-0.07-0.15-0.18-0.33-0.31-0.54c-0.36-0.58-0.59-0.96-0.68-1.16
			L51.45,20.86z M50.79,21.85c-0.11-0.83-0.27-1.46-0.48-1.91c-0.11-0.23-0.25-0.39-0.42-0.47c-0.11-0.06-0.22-0.06-0.32-0.02
			c-0.1,0.05-0.17,0.14-0.18,0.26c-0.03,0.2,0.02,0.43,0.16,0.71C49.75,20.86,50.16,21.33,50.79,21.85z M56.39,18.79l0.3,2.21
			l0.31,0.02c0.11,0.01,0.19,0.02,0.21,0.03c0.03,0.01,0.05,0.03,0.07,0.06c0.01,0.03,0.02,0.06,0.01,0.08
			c-0.01,0.03-0.03,0.05-0.05,0.06c-0.04,0.02-0.13,0.02-0.28,0.01l-1.96-0.17l0.39,0.68c0.12,0.22,0.21,0.49,0.28,0.81
			c0.07,0.33,0.09,0.63,0.04,0.91c-0.04,0.28-0.13,0.53-0.27,0.75c-0.14,0.22-0.33,0.38-0.57,0.5c-0.44,0.21-0.96,0.24-1.56,0.08
			c-0.6-0.16-1.37-0.61-2.31-1.33c-0.04-0.39-0.1-0.84-0.18-1.35c-0.74-0.61-1.24-1.16-1.49-1.67c-0.18-0.36-0.23-0.68-0.17-0.95
			c0.06-0.27,0.2-0.46,0.41-0.56c0.22-0.11,0.48-0.09,0.78,0.05c0.3,0.15,0.56,0.45,0.78,0.91c0.09,0.18,0.17,0.41,0.25,0.69
			l0.77,0.05l-0.35-0.59c-0.07-0.14-0.15-0.35-0.23-0.61c-0.08-0.27-0.11-0.5-0.09-0.7c0.02-0.2,0.08-0.38,0.18-0.52
			c0.1-0.15,0.23-0.26,0.38-0.33c0.24-0.12,0.5-0.14,0.78-0.06c0.17,0.05,0.37,0.18,0.59,0.39l0.05-0.03
			c0.26-0.12,0.61-0.15,1.05-0.09C54.99,18.21,55.61,18.43,56.39,18.79z"/>
		<path class="st12" d="M57.25,26.71l-0.38,1.36l-0.81-0.32l0.28-1.02l-2.86,0.69l-0.17,0.98l0.47,0.4l-0.19,0.09l-1.1-0.93
			c0.09-0.33,0.15-0.6,0.18-0.82c0.03-0.22,0.03-0.49,0.02-0.8l0.11-0.03c0.1,0.09,0.19,0.14,0.28,0.15c0.13,0.02,0.32,0,0.57-0.06
			l2.56-0.62C56.46,26.12,56.81,26.43,57.25,26.71z"/>
		<path class="st12" d="M59.57,30.51l-0.11,0.04c-0.16-0.21-0.33-0.34-0.49-0.41c-0.17-0.07-0.42-0.08-0.77-0.05l-1.5,0.14
			l1.26,1.32c-0.17,0.32-0.34,0.53-0.51,0.64c-0.17,0.11-0.48,0.18-0.92,0.22l-2.08,0.19c-0.4,0.04-0.69,0.02-0.88-0.04
			c-0.31-0.1-0.62-0.32-0.91-0.65c-0.39-0.43-0.75-1-1.07-1.7l0.16-0.09c0.3,0.57,0.56,0.96,0.77,1.17
			c0.22,0.21,0.45,0.34,0.68,0.39c0.17,0.04,0.61,0.02,1.32-0.04l1.92-0.18c0.21-0.02,0.36-0.06,0.44-0.11
			c0.11-0.07,0.21-0.2,0.3-0.39l-0.69-0.72l-2.56,0.24l-0.3,0.37l-0.73-0.76l0.57-0.9l0.4,0.34l4.17-0.39
			c0.38-0.04,0.63-0.09,0.77-0.17c0.13-0.08,0.25-0.23,0.34-0.44l0.12,0.05c-0.03,0.17-0.06,0.3-0.11,0.41
			c-0.05,0.1-0.13,0.24-0.25,0.41c0.2,0.17,0.34,0.34,0.44,0.51C59.44,30.09,59.52,30.29,59.57,30.51z"/>
		<path class="st12" d="M54.3,34.58l-0.58,1.17l2.92,0.22c0.2-0.37,0.34-0.62,0.4-0.78c0.05-0.11,0.09-0.24,0.13-0.39L54.3,34.58z
			 M57.12,36.95l-3.43-0.25c-0.15-0.48-0.28-0.83-0.38-1.05c-0.08-0.17-0.18-0.33-0.3-0.48c0.31-0.43,0.52-0.79,0.65-1.07
			c0.1-0.22,0.16-0.47,0.18-0.75l0.09-0.04c0.09,0.13,0.17,0.21,0.25,0.24c0.1,0.05,0.28,0.09,0.53,0.11l2.54,0.19
			c0.15,0.59,0.37,1.1,0.68,1.53C57.6,35.79,57.33,36.32,57.12,36.95z"/>
		<path class="st12" d="M53.74,38.74l-0.77,1.05l2.85,0.7c0.26-0.33,0.44-0.56,0.53-0.7c0.07-0.1,0.13-0.22,0.2-0.37L53.74,38.74z
			 M56.12,41.55l-3.34-0.82c-0.07-0.5-0.14-0.86-0.2-1.1c-0.05-0.18-0.12-0.35-0.21-0.52c0.37-0.37,0.65-0.69,0.82-0.95
			c0.13-0.2,0.23-0.43,0.3-0.71l0.09-0.03c0.07,0.14,0.14,0.23,0.21,0.28c0.09,0.07,0.26,0.13,0.5,0.19l2.47,0.61
			c0.04,0.6,0.18,1.14,0.42,1.62C56.79,40.49,56.44,40.96,56.12,41.55z"/>
		<path class="st12" d="M57.15,45.53l-0.11-0.04c-0.02-0.28-0.1-0.49-0.23-0.66c-0.13-0.16-0.37-0.31-0.71-0.45l-3.79-1.52
			l-0.58,0.36l0.07,0.25l-0.2,0.04l-0.31-1.12c0.33-0.18,0.56-0.32,0.68-0.42c0.13-0.1,0.26-0.25,0.41-0.44l0.08,0.03
			c0.02,0.1,0.05,0.19,0.11,0.26c0.06,0.07,0.13,0.14,0.23,0.2c0.03,0.02,0.2,0.09,0.51,0.22l3.08,1.23
			c0.26,0.1,0.45,0.17,0.56,0.19c0.11,0.02,0.22,0.02,0.34-0.01c0.12-0.02,0.26-0.09,0.44-0.19l0.05,0.1
			c-0.18,0.24-0.43,0.41-0.74,0.53c0.14,0.31,0.21,0.57,0.23,0.77C57.27,45.08,57.23,45.3,57.15,45.53z"/>
	</g>
</g>
</svg>
